<?xml version="1.0" encoding="utf-8"?>
<svg width="35px" height="35px" viewBox="0 0 35 35" version="1.1" xmlns:xlink="http://www.w3.org/1999/xlink" xmlns="http://www.w3.org/2000/svg">
  <desc>Created with Lunacy</desc>
  <g id="Group-3">
    <path d="M2 0L33 0Q33.1025 0 33.2034 0.00932124Q33.3044 0.0186425 33.4029 0.037209Q33.5014 0.0557754 33.5967 0.0834357Q33.692 0.111096 33.7833 0.147624Q33.8747 0.184153 33.9612 0.229252Q34.0478 0.27435 34.129 0.327651Q34.2101 0.380953 34.2852 0.442021Q34.3602 0.50309 34.4286 0.571429Q34.4969 0.639767 34.558 0.714818Q34.6191 0.789868 34.6724 0.871019Q34.7257 0.95217 34.7708 1.03876Q34.8158 1.12535 34.8524 1.21667Q34.8889 1.30799 34.9166 1.4033Q34.9442 1.49861 34.9628 1.59713Q34.9814 1.69564 34.9907 1.79657Q35 1.89749 35 2L35 33Q35 33.1025 34.9907 33.2034Q34.9814 33.3044 34.9628 33.4029Q34.9442 33.5014 34.9166 33.5967Q34.8889 33.692 34.8524 33.7833Q34.8158 33.8747 34.7708 33.9612Q34.7257 34.0478 34.6724 34.129Q34.6191 34.2101 34.558 34.2852Q34.4969 34.3602 34.4286 34.4286Q34.3602 34.4969 34.2852 34.558Q34.2101 34.6191 34.129 34.6724Q34.0478 34.7257 33.9612 34.7708Q33.8747 34.8158 33.7833 34.8524Q33.692 34.8889 33.5967 34.9166Q33.5014 34.9442 33.4029 34.9628Q33.3044 34.9814 33.2034 34.9907Q33.1025 35 33 35L2 35Q1.89749 35 1.79657 34.9907Q1.69564 34.9814 1.59713 34.9628Q1.49861 34.9442 1.4033 34.9166Q1.30799 34.8889 1.21667 34.8524Q1.12535 34.8158 1.03876 34.7708Q0.95217 34.7257 0.871019 34.6724Q0.789868 34.6191 0.714818 34.558Q0.639767 34.4969 0.571429 34.4286Q0.50309 34.3602 0.442021 34.2852Q0.380953 34.2101 0.327651 34.129Q0.27435 34.0478 0.229252 33.9612Q0.184153 33.8747 0.147624 33.7833Q0.111096 33.692 0.0834357 33.5967Q0.0557754 33.5014 0.037209 33.4029Q0.0186425 33.3044 0.00932124 33.2034Q0 33.1025 0 33L0 2Q0 1.89749 0.00932124 1.79657Q0.0186425 1.69564 0.037209 1.59713Q0.0557754 1.49861 0.0834357 1.4033Q0.111096 1.30799 0.147624 1.21667Q0.184153 1.12535 0.229252 1.03876Q0.27435 0.95217 0.327651 0.871019Q0.380953 0.789868 0.442021 0.714818Q0.50309 0.639767 0.571429 0.571429Q0.639767 0.50309 0.714818 0.442021Q0.789868 0.380953 0.871019 0.327651Q0.95217 0.27435 1.03876 0.229252Q1.12535 0.184153 1.21667 0.147624Q1.30799 0.111096 1.4033 0.0834357Q1.49861 0.0557754 1.59713 0.037209Q1.69564 0.0186425 1.79657 0.00932124Q1.89749 0 2 0Z" id="Rectangle-3" fill=" rgba(110, 110, 110, 0.36)" stroke="none" />
    <path d="M16.4414 8.77208C16.7844 6.47931 15.0387 5.24677 12.6517 4.42454L13.426 1.31869L11.5355 0.847538L10.7816 3.87154C10.2846 3.74769 9.77415 3.63085 9.26692 3.51508L10.0262 0.471154L8.13669 0L7.36185 3.10477C6.95046 3.01108 6.54662 2.91846 6.15461 2.821L6.15677 2.81131L3.54954 2.16031L3.04662 4.17954C3.04662 4.17954 4.44931 4.501 4.41969 4.52092C5.18538 4.71208 5.32377 5.21877 5.30062 5.62046L4.41862 9.15869C4.47138 9.17215 4.53977 9.19154 4.61515 9.22169C4.55215 9.20608 4.48485 9.18885 4.41538 9.17215L3.17908 14.1287C3.08538 14.3613 2.84792 14.7102 2.31269 14.5778C2.33154 14.6052 0.938538 14.2348 0.938538 14.2348L0 16.3988L2.46023 17.0122C2.91792 17.1268 3.36646 17.2469 3.808 17.36L3.02562 20.5014L4.914 20.9725L5.68885 17.8645C6.20469 18.0045 6.70546 18.1338 7.19546 18.2555L6.42331 21.3489L8.31385 21.8201L9.09623 18.6846C12.32 19.2947 14.7442 19.0486 15.7645 16.1328C16.5868 13.7852 15.7236 12.4309 14.0275 11.5478C15.2627 11.263 16.1932 10.4505 16.4414 8.77208L16.4414 8.77208ZM12.1218 14.8292C11.5376 17.1769 7.58477 15.9078 6.30323 15.5895L7.34138 11.4278C8.62292 11.7476 12.7325 12.3808 12.1218 14.8292ZM12.7066 8.73815C12.1735 10.8737 8.88354 9.78869 7.81631 9.52269L8.75754 5.74808C9.82477 6.01408 13.2618 6.51054 12.7066 8.73815Z" transform="translate(8.921533 7.65625)" id="Shape" fill="#FFFFFF" stroke="none" />
  </g>
</svg>