<?xml version="1.0" encoding="utf-8"?>
<svg width="16px" height="16px" viewBox="0 0 16 16" version="1.1" xmlns:xlink="http://www.w3.org/1999/xlink" xmlns="http://www.w3.org/2000/svg">
  <desc>Created with Lunacy</desc>
  <path d="M5.95598 0.502875Q5.94239 0.451221 5.91965 0.401577Q5.89691 0.351933 5.86576 0.305916Q5.83462 0.259899 5.79608 0.219007Q5.75755 0.178115 5.71288 0.143679Q5.6682 0.109243 5.61885 0.0823838Q5.5695 0.0555252 5.51707 0.0371183Q5.46464 0.0187115 5.41084 0.00935573Q5.35705 0 5.30363 0L3.97498 0Q3.92157 0 3.87023 0.00967433Q3.8189 0.0193487 3.77131 0.0383823Q3.72373 0.057416 3.68145 0.0851893Q3.63916 0.112963 3.60355 0.148571Q3.56794 0.18418 3.54017 0.226465Q3.5124 0.26875 3.49336 0.316334Q3.47433 0.363918 3.46465 0.415253Q3.45498 0.466587 3.45498 0.52L3.45498 1.2L3.45433 1.2L3.45433 3.19755Q3.45433 3.25096 3.44466 3.3023Q3.43498 3.35363 3.41595 3.40121Q3.39691 3.4488 3.36914 3.49108Q3.34137 3.53337 3.30576 3.56898Q3.27015 3.60459 3.22786 3.63236Q3.18558 3.66013 3.138 3.67917Q3.09041 3.6982 3.03908 3.70787Q2.98774 3.71755 2.93433 3.71755L2.32775 3.71755Q2.27434 3.71755 2.223 3.70787Q2.17167 3.6982 2.12408 3.67917Q2.0765 3.66013 2.03421 3.63236Q1.99193 3.60459 1.95632 3.56898Q1.92071 3.53337 1.89294 3.49108Q1.86516 3.4488 1.84613 3.40122Q1.8271 3.35363 1.81742 3.3023Q1.80775 3.25096 1.80775 3.19755L1.80775 1.2L1.04 1.2Q0.933174 1.2 0.830505 1.21935Q0.727836 1.2387 0.632668 1.27676Q0.5375 1.31483 0.45293 1.37038Q0.36836 1.42593 0.297143 1.49714Q0.225925 1.56836 0.170379 1.65293Q0.114832 1.7375 0.0767647 1.83267Q0.0386973 1.92784 0.0193487 2.03051Q0 2.13317 0 2.24L0 14.56Q0 14.6668 0.0193487 14.7695Q0.0386973 14.8722 0.0767647 14.9673Q0.114832 15.0625 0.170379 15.1471Q0.225925 15.2316 0.297143 15.3029Q0.36836 15.3741 0.45293 15.4296Q0.5375 15.4852 0.632668 15.5232Q0.727836 15.5613 0.830505 15.5807Q0.933174 15.6 1.04 15.6L14.16 15.6Q14.2668 15.6 14.3695 15.5807Q14.4722 15.5613 14.5673 15.5232Q14.6625 15.4852 14.7471 15.4296Q14.8316 15.3741 14.9029 15.3029Q14.9741 15.2316 15.0296 15.1471Q15.0852 15.0625 15.1232 14.9673Q15.1613 14.8722 15.1807 14.7695Q15.2 14.6668 15.2 14.56L15.2 2.24Q15.2 2.13317 15.1807 2.03051Q15.1613 1.92784 15.1232 1.83267Q15.0852 1.7375 15.0296 1.65293Q14.9741 1.56836 14.9029 1.49714Q14.8316 1.42593 14.7471 1.37038Q14.6625 1.31483 14.5673 1.27676Q14.4722 1.2387 14.3695 1.21935Q14.2668 1.2 14.16 1.2L13.9591 1.2L13.7744 0.510033Q13.7606 0.458436 13.7376 0.408848Q13.7147 0.359259 13.6833 0.313293Q13.652 0.267326 13.6133 0.226479Q13.5746 0.185632 13.5298 0.151234Q13.485 0.116836 13.4355 0.0900075Q13.386 0.0631785 13.3335 0.0447921Q13.281 0.0264056 13.2272 0.0170602Q13.1734 0.00771484 13.1199 0.00771484L11.7913 0.00771484Q11.7379 0.00771484 11.6865 0.0173892Q11.6352 0.0270635 11.5876 0.0460972Q11.54 0.0651309 11.4978 0.0929042Q11.4555 0.120678 11.4199 0.156286Q11.3843 0.191895 11.3565 0.23418Q11.3287 0.276465 11.3097 0.324049Q11.2906 0.371633 11.281 0.422967Q11.2713 0.474302 11.2713 0.527715L11.2713 3.19755Q11.2713 3.25096 11.2616 3.3023Q11.2519 3.35363 11.2329 3.40121Q11.2139 3.4488 11.1861 3.49108Q11.1583 3.53337 11.1227 3.56898Q11.0871 3.60459 11.0448 3.63236Q11.0025 3.66013 10.955 3.67917Q10.9074 3.6982 10.856 3.70787Q10.8047 3.71755 10.7513 3.71755L10.1447 3.71755Q10.0913 3.71755 10.04 3.70787Q9.98863 3.6982 9.94104 3.67917Q9.89346 3.66013 9.85117 3.63236Q9.80889 3.60459 9.77328 3.56898Q9.73767 3.53337 9.7099 3.49108Q9.68212 3.4488 9.66309 3.40122Q9.64406 3.35363 9.63438 3.3023Q9.62471 3.25096 9.62471 3.19755L9.62471 1.2L6.13946 1.2L5.95598 0.502875ZM2.27726 6.49193L3.92526 6.49193Q3.97868 6.49193 4.03001 6.5016Q4.08134 6.51127 4.12893 6.53031Q4.17651 6.54934 4.2188 6.57712Q4.26108 6.60489 4.29669 6.6405Q4.3323 6.67611 4.36007 6.71839Q4.38785 6.76068 4.40688 6.80826Q4.42591 6.85584 4.43559 6.90718Q4.44526 6.95851 4.44526 7.01193L4.44526 8.65993Q4.44526 8.71334 4.43559 8.76467Q4.42591 8.81601 4.40688 8.86359Q4.38785 8.91118 4.36007 8.95346Q4.3323 8.99575 4.29669 9.03135Q4.26108 9.06696 4.2188 9.09474Q4.17651 9.12251 4.12893 9.14154Q4.08134 9.16058 4.03001 9.17025Q3.97868 9.17993 3.92526 9.17993L2.27726 9.17993Q2.22385 9.17993 2.17251 9.17025Q2.12118 9.16058 2.0736 9.14154Q2.02601 9.12251 1.98373 9.09474Q1.94144 9.06696 1.90583 9.03135Q1.87023 8.99575 1.84245 8.95346Q1.81468 8.91118 1.79564 8.86359Q1.77661 8.81601 1.76694 8.76467Q1.75726 8.71334 1.75726 8.65993L1.75726 7.01193Q1.75726 6.95851 1.76694 6.90718Q1.77661 6.85584 1.79564 6.80826Q1.81468 6.76068 1.84245 6.71839Q1.87023 6.67611 1.90583 6.6405Q1.94144 6.60489 1.98373 6.57712Q2.02601 6.54934 2.0736 6.53031Q2.12118 6.51127 2.17251 6.5016Q2.22385 6.49193 2.27726 6.49193ZM8.50059 6.49193L6.85259 6.49193Q6.79917 6.49193 6.74784 6.5016Q6.69651 6.51127 6.64892 6.53031Q6.60134 6.54934 6.55905 6.57712Q6.51677 6.60489 6.48116 6.6405Q6.44555 6.67611 6.41778 6.71839Q6.39 6.76068 6.37097 6.80826Q6.35193 6.85584 6.34226 6.90718Q6.33259 6.95851 6.33259 7.01193L6.33259 8.65993Q6.33259 8.71334 6.34226 8.76467Q6.35193 8.81601 6.37097 8.86359Q6.39 8.91118 6.41778 8.95346Q6.44555 8.99575 6.48116 9.03135Q6.51677 9.06696 6.55905 9.09474Q6.60134 9.12251 6.64892 9.14154Q6.69651 9.16058 6.74784 9.17025Q6.79917 9.17993 6.85259 9.17993L8.50059 9.17993Q8.554 9.17993 8.60533 9.17025Q8.65667 9.16058 8.70425 9.14154Q8.75184 9.12251 8.79412 9.09474Q8.83641 9.06696 8.87201 9.03135Q8.90762 8.99575 8.9354 8.95346Q8.96317 8.91118 8.9822 8.86359Q9.00124 8.81601 9.01091 8.76467Q9.02059 8.71334 9.02059 8.65993L9.02059 7.01193Q9.02059 6.95851 9.01091 6.90718Q9.00124 6.85584 8.9822 6.80826Q8.96317 6.76068 8.9354 6.71839Q8.90762 6.67611 8.87201 6.6405Q8.83641 6.60489 8.79412 6.57712Q8.75184 6.54934 8.70425 6.53031Q8.65667 6.51127 8.60533 6.5016Q8.554 6.49193 8.50059 6.49193ZM11.4279 6.49193L13.0759 6.49193Q13.1293 6.49193 13.1807 6.5016Q13.232 6.51127 13.2796 6.53031Q13.3272 6.54934 13.3694 6.57712Q13.4117 6.60489 13.4473 6.6405Q13.4829 6.67611 13.5107 6.71839Q13.5385 6.76068 13.5575 6.80826Q13.5766 6.85584 13.5862 6.90718Q13.5959 6.95851 13.5959 7.01193L13.5959 8.65993Q13.5959 8.71334 13.5862 8.76467Q13.5766 8.81601 13.5575 8.86359Q13.5385 8.91118 13.5107 8.95346Q13.4829 8.99575 13.4473 9.03135Q13.4117 9.06696 13.3694 9.09474Q13.3272 9.12251 13.2796 9.14154Q13.232 9.16058 13.1807 9.17025Q13.1293 9.17993 13.0759 9.17993L11.4279 9.17993Q11.3745 9.17993 11.3232 9.17025Q11.2718 9.16058 11.2242 9.14154Q11.1767 9.12251 11.1344 9.09474Q11.0921 9.06696 11.0565 9.03135Q11.0209 8.99575 10.9931 8.95346Q10.9653 8.91118 10.9463 8.86359Q10.9273 8.81601 10.9176 8.76467Q10.9079 8.71334 10.9079 8.65993L10.9079 7.01193Q10.9079 6.95851 10.9176 6.90718Q10.9273 6.85584 10.9463 6.80826Q10.9653 6.76068 10.9931 6.71839Q11.0209 6.67611 11.0565 6.6405Q11.0921 6.60489 11.1344 6.57712Q11.1767 6.54934 11.2242 6.53031Q11.2718 6.51127 11.3232 6.5016Q11.3745 6.49193 11.4279 6.49193ZM2.27726 11.2545L3.92526 11.2545Q3.97868 11.2545 4.03001 11.2641Q4.08134 11.2738 4.12893 11.2929Q4.17651 11.3119 4.2188 11.3397Q4.26108 11.3674 4.29669 11.403Q4.3323 11.4387 4.36007 11.4809Q4.38785 11.5232 4.40688 11.5708Q4.42591 11.6184 4.43559 11.6697Q4.44526 11.7211 4.44526 11.7745L4.44526 13.4225Q4.44526 13.4759 4.43559 13.5272Q4.42591 13.5786 4.40688 13.6261Q4.38785 13.6737 4.36007 13.716Q4.3323 13.7583 4.29669 13.7939Q4.26108 13.8295 4.2188 13.8573Q4.17651 13.8851 4.12893 13.9041Q4.08134 13.9231 4.03001 13.9328Q3.97868 13.9425 3.92526 13.9425L2.27726 13.9425Q2.22385 13.9425 2.17251 13.9328Q2.12118 13.9231 2.0736 13.9041Q2.02601 13.8851 1.98373 13.8573Q1.94144 13.8295 1.90583 13.7939Q1.87023 13.7583 1.84245 13.716Q1.81468 13.6737 1.79564 13.6261Q1.77661 13.5786 1.76694 13.5272Q1.75726 13.4759 1.75726 13.4225L1.75726 11.7745Q1.75726 11.7211 1.76694 11.6697Q1.77661 11.6184 1.79564 11.5708Q1.81468 11.5232 1.84245 11.4809Q1.87023 11.4387 1.90583 11.403Q1.94144 11.3674 1.98373 11.3397Q2.02601 11.3119 2.0736 11.2929Q2.12118 11.2738 2.17251 11.2641Q2.22385 11.2545 2.27726 11.2545ZM8.50059 11.2545L6.85259 11.2545Q6.79917 11.2545 6.74784 11.2641Q6.69651 11.2738 6.64892 11.2929Q6.60134 11.3119 6.55905 11.3397Q6.51677 11.3674 6.48116 11.403Q6.44555 11.4387 6.41778 11.4809Q6.39 11.5232 6.37097 11.5708Q6.35193 11.6184 6.34226 11.6697Q6.33259 11.7211 6.33259 11.7745L6.33259 13.4225Q6.33259 13.4759 6.34226 13.5272Q6.35193 13.5786 6.37097 13.6261Q6.39 13.6737 6.41778 13.716Q6.44555 13.7583 6.48116 13.7939Q6.51677 13.8295 6.55905 13.8573Q6.60134 13.8851 6.64892 13.9041Q6.69651 13.9231 6.74784 13.9328Q6.79917 13.9425 6.85259 13.9425L8.50059 13.9425Q8.554 13.9425 8.60533 13.9328Q8.65667 13.9231 8.70425 13.9041Q8.75184 13.8851 8.79412 13.8573Q8.83641 13.8295 8.87201 13.7939Q8.90762 13.7583 8.9354 13.716Q8.96317 13.6737 8.9822 13.6261Q9.00124 13.5786 9.01091 13.5272Q9.02059 13.4759 9.02059 13.4225L9.02059 11.7745Q9.02059 11.7211 9.01091 11.6697Q9.00124 11.6184 8.9822 11.5708Q8.96317 11.5232 8.9354 11.4809Q8.90762 11.4387 8.87201 11.403Q8.83641 11.3674 8.79412 11.3397Q8.75184 11.3119 8.70425 11.2929Q8.65667 11.2738 8.60533 11.2641Q8.554 11.2545 8.50059 11.2545Z" id="Calendar" fill="#43444B" fill-rule="evenodd" stroke="none" />
</svg>