<?xml version="1.0" encoding="utf-8"?>
<svg width="16px" height="16px" viewBox="0 0 16 16" version="1.1" xmlns:xlink="http://www.w3.org/1999/xlink" xmlns="http://www.w3.org/2000/svg">
  <desc>Created with Lunacy</desc>
  <path d="M14.16 0L1.04 0Q0.933174 0 0.830505 0.0193487Q0.727836 0.0386973 0.632668 0.0767647Q0.5375 0.114832 0.45293 0.170379Q0.36836 0.225925 0.297143 0.297143Q0.225925 0.36836 0.170379 0.45293Q0.114832 0.5375 0.0767647 0.632668Q0.0386973 0.727836 0.0193487 0.830505Q0 0.933174 0 1.04L0 14.16Q0 14.2668 0.0193487 14.3695Q0.0386973 14.4722 0.0767647 14.5673Q0.114832 14.6625 0.170379 14.7471Q0.225925 14.8316 0.297143 14.9029Q0.36836 14.9741 0.45293 15.0296Q0.5375 15.0852 0.632668 15.1232Q0.727836 15.1613 0.830505 15.1807Q0.933174 15.2 1.04 15.2L14.16 15.2Q14.2668 15.2 14.3695 15.1807Q14.4722 15.1613 14.5673 15.1232Q14.6625 15.0852 14.7471 15.0296Q14.8316 14.9741 14.9029 14.9029Q14.9741 14.8316 15.0296 14.7471Q15.0852 14.6625 15.1232 14.5673Q15.1613 14.4722 15.1807 14.3695Q15.2 14.2668 15.2 14.16L15.2 1.04Q15.2 0.933174 15.1807 0.830505Q15.1613 0.727836 15.1232 0.632668Q15.0852 0.5375 15.0296 0.45293Q14.9741 0.36836 14.9029 0.297143Q14.8316 0.225925 14.7471 0.170379Q14.6625 0.114832 14.5673 0.0767647Q14.4722 0.0386973 14.3695 0.0193487Q14.2668 0 14.16 0ZM3.87331 3.70205L2.99331 3.70205Q2.93989 3.70205 2.88856 3.71173Q2.83723 3.7214 2.78964 3.74043Q2.74206 3.75947 2.69977 3.78724Q2.65749 3.81501 2.62188 3.85062Q2.58627 3.88623 2.5585 3.92852Q2.53072 3.9708 2.51169 4.01838Q2.49266 4.06597 2.48298 4.1173Q2.47331 4.16864 2.47331 4.22205L2.47331 11.9641Q2.47331 12.0175 2.48298 12.0688Q2.49266 12.1202 2.51169 12.1677Q2.53072 12.2153 2.5585 12.2576Q2.58627 12.2999 2.62188 12.3355Q2.65749 12.3711 2.69977 12.3989Q2.74206 12.4267 2.78964 12.4457Q2.83723 12.4647 2.88856 12.4744Q2.93989 12.4841 2.99331 12.4841L3.87331 12.4841Q3.92672 12.4841 3.97805 12.4744Q4.02939 12.4647 4.07697 12.4457Q4.12456 12.4267 4.16684 12.3989Q4.20913 12.3711 4.24474 12.3355Q4.28034 12.2999 4.30812 12.2576Q4.33589 12.2153 4.35492 12.1677Q4.37396 12.1202 4.38363 12.0688Q4.39331 12.0175 4.39331 11.9641L4.39331 4.22205Q4.39331 4.16864 4.38363 4.1173Q4.37396 4.06597 4.35492 4.01838Q4.33589 3.9708 4.30812 3.92852Q4.28034 3.88623 4.24474 3.85062Q4.20913 3.81501 4.16684 3.78724Q4.12456 3.75947 4.07697 3.74043Q4.02939 3.7214 3.97805 3.71173Q3.92672 3.70205 3.87331 3.70205ZM7.16 6.29903L8.04 6.29903Q8.09341 6.29903 8.14475 6.30871Q8.19608 6.31838 8.24367 6.33742Q8.29125 6.35645 8.33354 6.38422Q8.37582 6.412 8.41143 6.44761Q8.44704 6.48321 8.47481 6.5255Q8.50258 6.56779 8.52162 6.61537Q8.54065 6.66295 8.55033 6.71429Q8.56 6.76562 8.56 6.81903L8.56 11.9641Q8.56 12.0175 8.55033 12.0688Q8.54065 12.1202 8.52162 12.1678Q8.50258 12.2153 8.47481 12.2576Q8.44704 12.2999 8.41143 12.3355Q8.37582 12.3711 8.33354 12.3989Q8.29125 12.4267 8.24367 12.4457Q8.19608 12.4647 8.14475 12.4744Q8.09341 12.4841 8.04 12.4841L7.16 12.4841Q7.10659 12.4841 7.05525 12.4744Q7.00392 12.4647 6.95633 12.4457Q6.90875 12.4267 6.86646 12.3989Q6.82418 12.3711 6.78857 12.3355Q6.75296 12.2999 6.72519 12.2576Q6.69742 12.2153 6.67838 12.1678Q6.65935 12.1202 6.64967 12.0688Q6.64 12.0175 6.64 11.9641L6.64 6.81903Q6.64 6.76562 6.64967 6.71429Q6.65935 6.66295 6.67838 6.61537Q6.69742 6.56779 6.72519 6.5255Q6.75296 6.48321 6.78857 6.44761Q6.82418 6.412 6.86647 6.38422Q6.90875 6.35645 6.95633 6.33742Q7.00392 6.31838 7.05525 6.30871Q7.10659 6.29903 7.16 6.29903ZM12.2067 8.90045L11.3267 8.90045Q11.2733 8.90045 11.2219 8.91013Q11.1706 8.9198 11.123 8.93884Q11.0754 8.95787 11.0332 8.98564Q10.9909 9.01342 10.9553 9.04903Q10.9197 9.08463 10.8919 9.12692Q10.8641 9.16921 10.8451 9.21679Q10.826 9.26437 10.8164 9.31571Q10.8067 9.36704 10.8067 9.42045L10.8067 11.9641Q10.8067 12.0175 10.8164 12.0688Q10.826 12.1202 10.8451 12.1678Q10.8641 12.2153 10.8919 12.2576Q10.9197 12.2999 10.9553 12.3355Q10.9909 12.3711 11.0332 12.3989Q11.0754 12.4267 11.123 12.4457Q11.1706 12.4647 11.2219 12.4744Q11.2733 12.4841 11.3267 12.4841L12.2067 12.4841Q12.2601 12.4841 12.3114 12.4744Q12.3628 12.4647 12.4104 12.4457Q12.4579 12.4267 12.5002 12.3989Q12.5425 12.3711 12.5781 12.3355Q12.6137 12.2999 12.6415 12.2576Q12.6693 12.2153 12.6883 12.1678Q12.7073 12.1202 12.717 12.0688Q12.7267 12.0175 12.7267 11.9641L12.7267 9.42045Q12.7267 9.36704 12.717 9.31571Q12.7073 9.26437 12.6883 9.21679Q12.6693 9.1692 12.6415 9.12692Q12.6137 9.08463 12.5781 9.04903Q12.5425 9.01342 12.5002 8.98564Q12.4579 8.95787 12.4104 8.93884Q12.3628 8.9198 12.3114 8.91013Q12.2601 8.90045 12.2067 8.90045Z" id="Chart" fill="#43444B" fill-rule="evenodd" stroke="none" />
</svg>