<?xml version="1.0" encoding="utf-8"?>
<svg width="16px" height="17px" viewBox="0 0 16 17" version="1.1" xmlns:xlink="http://www.w3.org/1999/xlink" xmlns="http://www.w3.org/2000/svg">
  <desc>Created with Lunacy</desc>
  <path d="M8.42476 0L5.99376 0Q5.92913 0 5.86834 0.0228035Q5.80755 0.045607 5.75844 0.0882684Q5.70934 0.13093 5.67827 0.187939Q5.64719 0.244947 5.63816 0.308939L5.46202 1.55724C2.32504 2.33581 0 5.17053 0 8.5483C0 12.5263 3.22482 15.7511 7.20284 15.7511C11.1809 15.7511 14.4057 12.5263 14.4057 8.5483C14.4057 5.17324 12.0844 2.34036 8.9512 1.55912L8.77927 0.30909Q8.77047 0.245067 8.73959 0.18803Q8.70872 0.130994 8.65976 0.0883115Q8.61081 0.0456292 8.5501 0.0228146Q8.48939 0 8.42476 0ZM8.16284 4.56728Q8.16284 4.51387 8.15316 4.46254Q8.14349 4.4112 8.12445 4.36362Q8.10542 4.31603 8.07765 4.27375Q8.04987 4.23146 8.01427 4.19586Q7.97866 4.16025 7.93637 4.13247Q7.89409 4.1047 7.8465 4.08567Q7.79892 4.06663 7.74759 4.05696Q7.69625 4.04728 7.64284 4.04728L6.76284 4.04728Q6.70942 4.04728 6.65809 4.05696Q6.60676 4.06663 6.55917 4.08567Q6.51159 4.1047 6.4693 4.13247Q6.42702 4.16025 6.39141 4.19586Q6.3558 4.23146 6.32803 4.27375Q6.30025 4.31603 6.28122 4.36362Q6.26219 4.4112 6.25251 4.46254Q6.24284 4.51387 6.24284 4.56728L6.24284 9.52674L8.16284 9.52674L8.16284 4.56728ZM11.8755 10.087L11.5746 10.9139Q11.5377 11.0151 11.4688 11.0922Q11.4 11.1692 11.3079 11.2121Q11.2159 11.255 11.1126 11.2583Q11.0093 11.2615 10.9081 11.2247L6.24771 9.52846L8.16321 9.52846L8.16321 8.18547L11.5646 9.42082Q11.6659 9.45759 11.7429 9.52641Q11.82 9.59524 11.8629 9.68723Q11.9059 9.77921 11.9091 9.88249Q11.9124 9.98576 11.8755 10.087Z" transform="translate(0.4000244 0.3999023)" id="Clock" fill="#43444B" fill-rule="evenodd" stroke="none" />
</svg>