<?xml version="1.0" encoding="utf-8"?>
<!-- Generator: Adobe Illustrator 23.0.3, SVG Export Plug-In . SVG Version: 6.00 Build 0)  -->
<svg version="1.1" id="Layer_1" xmlns="http://www.w3.org/2000/svg" xmlns:xlink="http://www.w3.org/1999/xlink" x="0px" y="0px"
	 viewBox="0 0 2000 2000" style="enable-background:new 0 0 2000 2000;" xml:space="preserve">
<style type="text/css">
	.st0{fill:none;stroke:#FFFFFF;stroke-width:80;stroke-linecap:round;stroke-linejoin:round;}
	#Rectangle-3{
	  fill: rgba(110, 110, 110, 0.36)
	}
</style>
<path id="Rectangle-3" d="M114.3,0h1771.4c3.9,0,7.8,0.2,11.6,0.5c3.8,0.4,7.6,0.9,11.4,1.6c3.8,0.7,7.4,1.6,11.1,2.6
	c3.6,1.1,7.2,2.3,10.7,3.7c3.5,1.4,6.9,2.9,10.2,4.7c3.3,1.7,6.5,3.6,9.6,5.6c3.1,2,6.1,4.2,8.9,6.5c2.9,2.3,5.6,4.8,8.2,7.4
	c2.6,2.6,5.1,5.3,7.4,8.2c2.3,2.9,4.5,5.8,6.5,8.9c2,3.1,3.9,6.3,5.6,9.6c1.7,3.3,3.3,6.7,4.7,10.2c1.4,3.5,2.6,7,3.7,10.7
	c1.1,3.6,1.9,7.3,2.6,11.1c0.7,3.8,1.2,7.6,1.6,11.4c0.4,3.8,0.5,7.7,0.5,11.6v1771.4c0,3.9-0.2,7.8-0.5,11.6
	c-0.4,3.8-0.9,7.6-1.6,11.4c-0.7,3.8-1.6,7.4-2.6,11.1c-1.1,3.6-2.3,7.2-3.7,10.7c-1.4,3.5-2.9,6.9-4.7,10.2
	c-1.7,3.3-3.6,6.5-5.6,9.6c-2,3.1-4.2,6.1-6.5,8.9c-2.3,2.9-4.8,5.6-7.4,8.2c-2.6,2.6-5.3,5.1-8.2,7.4c-2.9,2.3-5.8,4.5-8.9,6.5
	c-3.1,2-6.3,3.9-9.6,5.6c-3.3,1.7-6.7,3.3-10.2,4.7c-3.5,1.4-7,2.6-10.7,3.7c-3.6,1.1-7.3,1.9-11.1,2.6c-3.8,0.7-7.6,1.2-11.4,1.6
	c-3.8,0.4-7.7,0.5-11.6,0.5H114.3c-3.9,0-7.8-0.2-11.6-0.5c-3.8-0.4-7.6-0.9-11.4-1.6c-3.8-0.7-7.4-1.6-11.1-2.6
	c-3.6-1.1-7.2-2.3-10.7-3.7c-3.5-1.4-6.9-2.9-10.2-4.7c-3.3-1.7-6.5-3.6-9.6-5.6c-3.1-2-6.1-4.2-8.9-6.5c-2.9-2.3-5.6-4.8-8.2-7.4
	c-2.6-2.6-5.1-5.3-7.4-8.2c-2.3-2.9-4.5-5.8-6.5-8.9c-2-3.1-3.9-6.3-5.6-9.6c-1.7-3.3-3.3-6.7-4.7-10.2c-1.4-3.5-2.6-7-3.7-10.7
	c-1.1-3.6-1.9-7.3-2.6-11.1c-0.7-3.8-1.2-7.6-1.6-11.4c-0.4-3.8-0.5-7.7-0.5-11.6V114.3c0-3.9,0.2-7.8,0.5-11.6
	c0.4-3.8,0.9-7.6,1.6-11.4c0.7-3.8,1.6-7.4,2.6-11.1C5.8,76.6,7,73,8.4,69.5c1.4-3.5,2.9-6.9,4.7-10.2c1.7-3.3,3.6-6.5,5.6-9.6
	c2-3.1,4.2-6.1,6.5-8.9c2.3-2.9,4.8-5.6,7.4-8.2c2.6-2.6,5.3-5.1,8.2-7.4c2.9-2.3,5.8-4.5,8.9-6.5c3.1-2,6.3-3.9,9.6-5.6
	c3.3-1.7,6.7-3.3,10.2-4.7c3.5-1.4,7-2.6,10.7-3.7c3.6-1.1,7.3-1.9,11.1-2.6c3.8-0.7,7.6-1.2,11.4-1.6C106.5,0.2,110.4,0,114.3,0z"
	/>
<path class="st0" d="M680.4,725.6L1000,1729.2l-474.2-297.1L680.4,725.6L1000,289v306.2l-474.2,836.8h948.9l-474.2-836.8V289
	L1320,725.6l154.6,706.5l-474.2,297.1L1320,725.6"/>
</svg>
