<?xml version="1.0" encoding="utf-8"?>
<svg width="35px" height="35px" viewBox="0 0 35 35" version="1.1" xmlns:xlink="http://www.w3.org/1999/xlink" xmlns="http://www.w3.org/2000/svg">
  <desc>Created with Lunacy</desc>
  <g id="Group-4">
    <g id="Group-3">
      <path d="M2 0L33 0Q33.1025 0 33.2034 0.00932124Q33.3044 0.0186425 33.4029 0.037209Q33.5014 0.0557754 33.5967 0.0834357Q33.692 0.111096 33.7833 0.147624Q33.8747 0.184153 33.9612 0.229252Q34.0478 0.27435 34.129 0.327651Q34.2101 0.380953 34.2852 0.442021Q34.3602 0.50309 34.4286 0.571429Q34.4969 0.639767 34.558 0.714818Q34.6191 0.789868 34.6724 0.871019Q34.7257 0.95217 34.7708 1.03876Q34.8158 1.12535 34.8524 1.21667Q34.8889 1.30799 34.9166 1.4033Q34.9442 1.49861 34.9628 1.59713Q34.9814 1.69564 34.9907 1.79657Q35 1.89749 35 2L35 33Q35 33.1025 34.9907 33.2034Q34.9814 33.3044 34.9628 33.4029Q34.9442 33.5014 34.9166 33.5967Q34.8889 33.692 34.8524 33.7833Q34.8158 33.8747 34.7708 33.9612Q34.7257 34.0478 34.6724 34.129Q34.6191 34.2101 34.558 34.2852Q34.4969 34.3602 34.4286 34.4286Q34.3602 34.4969 34.2852 34.558Q34.2101 34.6191 34.129 34.6724Q34.0478 34.7257 33.9612 34.7708Q33.8747 34.8158 33.7833 34.8524Q33.692 34.8889 33.5967 34.9166Q33.5014 34.9442 33.4029 34.9628Q33.3044 34.9814 33.2034 34.9907Q33.1025 35 33 35L2 35Q1.89749 35 1.79657 34.9907Q1.69564 34.9814 1.59713 34.9628Q1.49861 34.9442 1.4033 34.9166Q1.30799 34.8889 1.21667 34.8524Q1.12535 34.8158 1.03876 34.7708Q0.95217 34.7257 0.871019 34.6724Q0.789868 34.6191 0.714818 34.558Q0.639767 34.4969 0.571429 34.4286Q0.50309 34.3602 0.442021 34.2852Q0.380953 34.2101 0.327651 34.129Q0.27435 34.0478 0.229252 33.9612Q0.184153 33.8747 0.147624 33.7833Q0.111096 33.692 0.0834357 33.5967Q0.0557754 33.5014 0.037209 33.4029Q0.0186425 33.3044 0.00932124 33.2034Q0 33.1025 0 33L0 2Q0 1.89749 0.00932124 1.79657Q0.0186425 1.69564 0.037209 1.59713Q0.0557754 1.49861 0.0834357 1.4033Q0.111096 1.30799 0.147624 1.21667Q0.184153 1.12535 0.229252 1.03876Q0.27435 0.95217 0.327651 0.871019Q0.380953 0.789868 0.442021 0.714818Q0.50309 0.639767 0.571429 0.571429Q0.639767 0.50309 0.714818 0.442021Q0.789868 0.380953 0.871019 0.327651Q0.95217 0.27435 1.03876 0.229252Q1.12535 0.184153 1.21667 0.147624Q1.30799 0.111096 1.4033 0.0834357Q1.49861 0.0557754 1.59713 0.037209Q1.69564 0.0186425 1.79657 0.00932124Q1.89749 0 2 0Z" id="Rectangle-3" fill=" rgba(110, 110, 110, 0.36)" stroke="none" />
    </g>
    <path d="M0.272064 10.8658L7.64047 7.85238L14.7822 10.9427L7.62914 0L0.272064 10.8658ZM15.1336 12.5484L7.67448 9.32608L0 12.4604L7.67448 16.5956L15.1336 12.5484ZM0.294736 14.2091L7.65181 18.3442L15.1563 14.2091L7.71983 24.25L0.294736 14.2091Z" transform="translate(9.84375 5.46875)" id="Shape" fill="#FFFFFF" fill-rule="evenodd" stroke="none" />
  </g>
</svg>