<?xml version="1.0" encoding="utf-8"?>
<svg width="16px" height="16px" viewBox="0 0 16 16" version="1.1" xmlns:xlink="http://www.w3.org/1999/xlink" xmlns="http://www.w3.org/2000/svg">
  <desc>Created with Lunacy</desc>
  <path d="M14.0596 0L1.04 0Q0.933174 0 0.830505 0.0193487Q0.727836 0.0386973 0.632668 0.0767647Q0.5375 0.114832 0.45293 0.170379Q0.36836 0.225925 0.297143 0.297143Q0.225925 0.36836 0.170379 0.45293Q0.114832 0.5375 0.0767647 0.632668Q0.0386973 0.727836 0.0193487 0.830505Q0 0.933174 0 1.04L0 14.56Q0 14.6668 0.0193487 14.7695Q0.0386973 14.8722 0.0767647 14.9673Q0.114832 15.0625 0.170379 15.1471Q0.225925 15.2316 0.297143 15.3029Q0.36836 15.3741 0.45293 15.4296Q0.5375 15.4852 0.632668 15.5232Q0.727836 15.5613 0.830505 15.5807Q0.933174 15.6 1.04 15.6L14.0596 15.6Q14.1664 15.6 14.2691 15.5807Q14.3718 15.5613 14.4669 15.5232Q14.5621 15.4852 14.6467 15.4296Q14.7312 15.3741 14.8025 15.3029Q14.8737 15.2316 14.9292 15.1471Q14.9848 15.0625 15.0228 14.9673Q15.0609 14.8722 15.0803 14.7695Q15.0996 14.6668 15.0996 14.56L15.0996 1.04Q15.0996 0.933174 15.0803 0.830505Q15.0609 0.727836 15.0228 0.632668Q14.9848 0.5375 14.9292 0.45293Q14.8737 0.36836 14.8025 0.297143Q14.7312 0.225925 14.6467 0.170379Q14.5621 0.114832 14.4669 0.0767647Q14.3718 0.0386973 14.2691 0.0193487Q14.1664 0 14.0596 0ZM12.5073 1.48779L2.51784 1.48779Q2.46443 1.48779 2.41309 1.49747Q2.36176 1.50714 2.31418 1.52617Q2.26659 1.54521 2.22431 1.57298Q2.18202 1.60075 2.14641 1.63636Q2.11081 1.67197 2.08303 1.71426Q2.05526 1.75654 2.03623 1.80413Q2.01719 1.85171 2.00752 1.90304Q1.99784 1.95438 1.99784 2.00779L1.99784 3.65014Q1.99784 3.70355 2.00752 3.75489Q2.01719 3.80622 2.03623 3.85381Q2.05526 3.90139 2.08303 3.94367Q2.1108 3.98596 2.14641 4.02157Q2.18202 4.05718 2.22431 4.08495Q2.26659 4.11272 2.31418 4.13176Q2.36176 4.15079 2.41309 4.16047Q2.46443 4.17014 2.51784 4.17014L12.5073 4.17014Q12.5607 4.17014 12.612 4.16047Q12.6633 4.15079 12.7109 4.13176Q12.7585 4.11272 12.8008 4.08495Q12.8431 4.05718 12.8787 4.02157Q12.9143 3.98596 12.9421 3.94367Q12.9698 3.90139 12.9889 3.85381Q13.0079 3.80622 13.0176 3.75489Q13.0273 3.70355 13.0273 3.65014L13.0273 2.00779Q13.0273 1.95438 13.0176 1.90304Q13.0079 1.85171 12.9889 1.80413Q12.9698 1.75654 12.9421 1.71426Q12.9143 1.67197 12.8787 1.63636Q12.8431 1.60075 12.8008 1.57298Q12.7585 1.54521 12.7109 1.52617Q12.6633 1.50714 12.612 1.49747Q12.5607 1.48779 12.5073 1.48779ZM4.22337 6.456L5.87137 6.456Q5.92478 6.456 5.97611 6.46567Q6.02745 6.47535 6.07503 6.49438Q6.12262 6.51342 6.1649 6.54119Q6.20719 6.56896 6.2428 6.60457Q6.2784 6.64018 6.30618 6.68247Q6.33395 6.72475 6.35298 6.77233Q6.37202 6.81992 6.38169 6.87125Q6.39137 6.92259 6.39137 6.976L6.39137 8.624Q6.39137 8.67741 6.38169 8.72875Q6.37202 8.78008 6.35298 8.82767Q6.33395 8.87525 6.30618 8.91754Q6.2784 8.95982 6.2428 8.99543Q6.20719 9.03104 6.1649 9.05881Q6.12262 9.08659 6.07503 9.10562Q6.02745 9.12465 5.97611 9.13433Q5.92478 9.144 5.87137 9.144L4.22337 9.144Q4.16995 9.144 4.11862 9.13433Q4.06729 9.12465 4.0197 9.10562Q3.97212 9.08659 3.92983 9.05881Q3.88755 9.03104 3.85194 8.99543Q3.81633 8.95982 3.78856 8.91754Q3.76078 8.87525 3.74175 8.82767Q3.72272 8.78008 3.71304 8.72875Q3.70337 8.67741 3.70337 8.624L3.70337 6.976Q3.70337 6.92259 3.71304 6.87125Q3.72272 6.81992 3.74175 6.77233Q3.76078 6.72475 3.78856 6.68247Q3.81633 6.64018 3.85194 6.60457Q3.88755 6.56896 3.92983 6.54119Q3.97212 6.51342 4.0197 6.49438Q4.06729 6.47535 4.11862 6.46567Q4.16995 6.456 4.22337 6.456ZM10.8017 6.456L9.15374 6.456Q9.10032 6.456 9.04899 6.46567Q8.99766 6.47535 8.95007 6.49438Q8.90249 6.51342 8.8602 6.54119Q8.81792 6.56896 8.78231 6.60457Q8.7467 6.64018 8.71893 6.68247Q8.69115 6.72475 8.67212 6.77233Q8.65309 6.81992 8.64341 6.87125Q8.63374 6.92259 8.63374 6.976L8.63374 8.624Q8.63374 8.67741 8.64341 8.72875Q8.65309 8.78008 8.67212 8.82767Q8.69115 8.87525 8.71893 8.91754Q8.7467 8.95982 8.78231 8.99543Q8.81792 9.03104 8.8602 9.05881Q8.90249 9.08659 8.95007 9.10562Q8.99766 9.12465 9.04899 9.13433Q9.10032 9.144 9.15374 9.144L10.8017 9.144Q10.8552 9.144 10.9065 9.13433Q10.9578 9.12465 11.0054 9.10562Q11.053 9.08659 11.0953 9.05881Q11.1376 9.03104 11.1732 8.99543Q11.2088 8.95982 11.2365 8.91754Q11.2643 8.87525 11.2834 8.82767Q11.3024 8.78008 11.3121 8.72875Q11.3217 8.67741 11.3217 8.624L11.3217 6.976Q11.3217 6.92259 11.3121 6.87125Q11.3024 6.81992 11.2834 6.77233Q11.2643 6.72475 11.2365 6.68247Q11.2088 6.64018 11.1732 6.60457Q11.1376 6.56896 11.0953 6.54119Q11.053 6.51342 11.0054 6.49438Q10.9578 6.47535 10.9065 6.46567Q10.8552 6.456 10.8017 6.456ZM4.22337 10.8495L5.87137 10.8495Q5.92478 10.8495 5.97611 10.8592Q6.02745 10.8688 6.07503 10.8879Q6.12262 10.9069 6.1649 10.9347Q6.20719 10.9625 6.2428 10.9981Q6.2784 11.0337 6.30618 11.076Q6.33395 11.1182 6.35298 11.1658Q6.37202 11.2134 6.38169 11.2648Q6.39137 11.3161 6.39137 11.3695L6.39137 13.0175Q6.39137 13.0709 6.38169 13.1222Q6.37202 13.1736 6.35298 13.2212Q6.33395 13.2688 6.30618 13.311Q6.2784 13.3533 6.2428 13.3889Q6.20719 13.4245 6.1649 13.4523Q6.12262 13.4801 6.07503 13.4991Q6.02745 13.5182 5.97611 13.5278Q5.92478 13.5375 5.87137 13.5375L4.22337 13.5375Q4.16995 13.5375 4.11862 13.5278Q4.06729 13.5182 4.0197 13.4991Q3.97212 13.4801 3.92983 13.4523Q3.88755 13.4245 3.85194 13.3889Q3.81633 13.3533 3.78856 13.311Q3.76078 13.2688 3.74175 13.2212Q3.72272 13.1736 3.71304 13.1222Q3.70337 13.0709 3.70337 13.0175L3.70337 11.3695Q3.70337 11.3161 3.71304 11.2648Q3.72272 11.2134 3.74175 11.1658Q3.76078 11.1182 3.78856 11.076Q3.81633 11.0337 3.85194 10.9981Q3.88755 10.9625 3.92983 10.9347Q3.97212 10.9069 4.0197 10.8879Q4.06729 10.8688 4.11862 10.8592Q4.16995 10.8495 4.22337 10.8495ZM10.8017 10.8495L9.15374 10.8495Q9.10032 10.8495 9.04899 10.8592Q8.99766 10.8688 8.95007 10.8879Q8.90249 10.9069 8.8602 10.9347Q8.81792 10.9625 8.78231 10.9981Q8.7467 11.0337 8.71893 11.076Q8.69115 11.1182 8.67212 11.1658Q8.65309 11.2134 8.64341 11.2648Q8.63374 11.3161 8.63374 11.3695L8.63374 13.0175Q8.63374 13.0709 8.64341 13.1222Q8.65309 13.1736 8.67212 13.2212Q8.69115 13.2688 8.71893 13.311Q8.7467 13.3533 8.78231 13.3889Q8.81792 13.4245 8.8602 13.4523Q8.90249 13.4801 8.95007 13.4991Q8.99766 13.5182 9.04899 13.5278Q9.10032 13.5375 9.15374 13.5375L10.8017 13.5375Q10.8552 13.5375 10.9065 13.5278Q10.9578 13.5182 11.0054 13.4991Q11.053 13.4801 11.0953 13.4523Q11.1376 13.4245 11.1732 13.3889Q11.2088 13.3533 11.2365 13.311Q11.2643 13.2688 11.2834 13.2212Q11.3024 13.1736 11.3121 13.1222Q11.3217 13.0709 11.3217 13.0175L11.3217 11.3695Q11.3217 11.3161 11.3121 11.2648Q11.3024 11.2134 11.2834 11.1658Q11.2643 11.1182 11.2365 11.076Q11.2088 11.0337 11.1732 10.9981Q11.1376 10.9625 11.0953 10.9347Q11.053 10.9069 11.0054 10.8879Q10.9578 10.8688 10.9065 10.8592Q10.8552 10.8495 10.8017 10.8495Z" id="File" fill="#43444B" fill-rule="evenodd" stroke="none" />
</svg>