<?xml version="1.0" encoding="utf-8"?>
<svg width="16px" height="16px" viewBox="0 0 16 16" version="1.1" xmlns:xlink="http://www.w3.org/1999/xlink" xmlns="http://www.w3.org/2000/svg">
  <desc>Created with Lunacy</desc>
  <path d="M8.98381 0L6.81528 0Q6.75065 0 6.68986 0.0228035Q6.62907 0.045607 6.57997 0.0882684Q6.53086 0.13093 6.49979 0.187939Q6.46871 0.244947 6.45968 0.308939L6.21065 2.07378C5.77737 2.20052 5.36411 2.37428 4.9767 2.58916L3.55208 1.50904Q3.50059 1.47 3.43842 1.4515Q3.37626 1.433 3.31146 1.43743Q3.24667 1.44187 3.18761 1.46867Q3.12854 1.49546 3.08285 1.54116L1.54946 3.07455Q1.50376 3.12024 1.4769 3.17935Q1.45004 3.23846 1.44549 3.30335Q1.44093 3.36824 1.45927 3.43052Q1.47761 3.49281 1.51647 3.54444L2.59314 4.97488C2.3789 5.36138 2.20525 5.77361 2.07792 6.20574L0.30909 6.44903Q0.245067 6.45783 0.18803 6.48871Q0.130994 6.51958 0.0883114 6.56854Q0.0456292 6.61749 0.0228146 6.6782Q0 6.73891 0 6.80354L0 8.97207Q0 9.0367 0.0228035 9.09749Q0.045607 9.15828 0.0882684 9.20739Q0.13093 9.25649 0.187939 9.28756Q0.244947 9.31863 0.308939 9.32767L2.04852 9.57314C2.17187 10.0208 2.34472 10.4479 2.5608 10.8481L1.50904 12.2353Q1.47 12.2868 1.4515 12.3489Q1.433 12.4111 1.43743 12.4759Q1.44187 12.5407 1.46867 12.5997Q1.49546 12.6588 1.54116 12.7045L3.07455 14.2379Q3.12024 14.2836 3.17935 14.3104Q3.23846 14.3373 3.30335 14.3419Q3.36824 14.3464 3.43052 14.3281Q3.49281 14.3097 3.54444 14.2709L4.90073 13.25C5.3126 13.4863 5.75465 13.6757 6.2197 13.8109L6.44903 15.4783Q6.45783 15.5423 6.48871 15.5993Q6.51958 15.6564 6.56854 15.699Q6.61749 15.7417 6.6782 15.7645Q6.73891 15.7873 6.80354 15.7873L8.97207 15.7873Q9.0367 15.7873 9.09749 15.7645Q9.15828 15.7417 9.20738 15.6991Q9.25649 15.6564 9.28756 15.5994Q9.31863 15.5424 9.32766 15.4784L9.56072 13.8268C10.034 13.6941 10.484 13.5054 10.9032 13.2684L12.2353 14.2783Q12.2868 14.3174 12.3489 14.3359Q12.4111 14.3544 12.4759 14.3499Q12.5407 14.3455 12.5997 14.3187Q12.6588 14.2919 12.7045 14.2462L14.2379 12.7128Q14.2836 12.6671 14.3104 12.608Q14.3373 12.5489 14.3419 12.484Q14.3464 12.4191 14.3281 12.3568Q14.3097 12.2945 14.2709 12.2429L13.2525 10.8899C13.4796 10.477 13.6605 10.0349 13.7882 9.57077L15.4783 9.33832Q15.5423 9.32952 15.5993 9.29864Q15.6564 9.26777 15.699 9.21881Q15.7417 9.16986 15.7645 9.10915Q15.7874 9.04844 15.7873 8.98381L15.7873 6.81528Q15.7874 6.75065 15.7645 6.68986Q15.7417 6.62907 15.6991 6.57997Q15.6564 6.53086 15.5994 6.49979Q15.5424 6.46871 15.4784 6.45968L13.7616 6.21743C13.6304 5.76872 13.4492 5.34139 13.2246 4.94192L14.2783 3.55208Q14.3174 3.50059 14.3359 3.43842Q14.3544 3.37626 14.3499 3.31146Q14.3455 3.24667 14.3187 3.18761Q14.2919 3.12854 14.2462 3.08285L12.7128 1.54946Q12.6671 1.50376 12.608 1.4769Q12.5489 1.45004 12.484 1.44549Q12.4191 1.44093 12.3568 1.45927Q12.2945 1.47761 12.2429 1.51647L10.8354 2.5759C10.4411 2.35955 10.0204 2.18568 9.5792 2.06045L9.33832 0.30909Q9.32952 0.245067 9.29864 0.18803Q9.26777 0.130994 9.21881 0.0883115Q9.16986 0.0456292 9.10915 0.0228146Q9.04844 0 8.98381 0ZM9.84727 7.94102C9.84727 9.02081 8.98104 9.89167 7.91805 9.89167C6.85506 9.89167 5.98883 9.02081 5.98883 7.94102C5.98883 6.86123 6.85506 5.99037 7.91805 5.99037C8.98104 5.99037 9.84727 6.86123 9.84727 7.94102Z" id="Hub" fill="#43444B" fill-rule="evenodd" stroke="none" />
</svg>