<?xml version="1.0" encoding="utf-8"?>
<!-- Generator: Adobe Illustrator 23.0.3, SVG Export Plug-In . SVG Version: 6.00 Build 0)  -->
<svg version="1.1" id="Layer_1" xmlns="http://www.w3.org/2000/svg" xmlns:xlink="http://www.w3.org/1999/xlink" x="0px" y="0px"
	 viewBox="0 0 92.66 71.68" style="enable-background:new 0 0 92.66 71.68;" xml:space="preserve">
<style type="text/css">
	.st1{fill:#FCB202;}
	.st0{fill:rgba(253, 253, 253, 0)}
	.st2{fill:#0740A8;}
</style>
<g>
	<path class="st0" d="M46.6,72.68c-14.5,0-29-0.05-43.5,0.05c-2.39,0.02-3.57,0.07-3.54-3.11c0.19-23,0.16-46,0.03-69
		c-0.02-2.66,0.79-3,3.14-2.99c29.33,0.08,58.67,0.1,88-0.02c2.66-0.01,3,0.79,2.99,3.14c-0.09,23-0.11,46,0.02,69
		c0.02,2.66-0.79,3.01-3.14,2.99C75.93,72.63,61.26,72.68,46.6,72.68z"/>
	<path class="st1" d="M27.47,61.65C18.28,40.39,9.65,20.44,0.82,0.03c17.97,0,35.47,0,53.61,0C45.57,20.29,36.76,40.42,27.47,61.65z
		"/>
	<path class="st2" d="M38.84,71.41c8.99-20.54,17.75-40.55,26.99-61.66c9.14,21.1,17.83,41.17,26.71,61.66
		C74.51,71.41,56.98,71.41,38.84,71.41z"/>
</g>
</svg>
