<?xml version="1.0" encoding="utf-8"?>
<!-- Generator: Adobe Illustrator 23.0.3, SVG Export Plug-In . SVG Version: 6.00 Build 0)  -->
<svg version="1.1" id="Layer_1" xmlns="http://www.w3.org/2000/svg" xmlns:xlink="http://www.w3.org/1999/xlink" x="0px" y="0px"
	 viewBox="0 0 247 75" style="enable-background:new 0 0 247 75;" xml:space="preserve">
<style type="text/css">
	.st0{fill:#0840A9;}
	.st1{fill:#0941A9;}
	.st2{fill:#0A42A9;}
	.st3{fill:#0C43AA;}
	.st4{fill:#0841A9;}
	.st5{fill:#0C44AA;}
	.st6{fill:#191919;}
	.st7{fill:#191919;}
</style>
<g>
	<path class="st0" d="M1,4c6.32,0.08,12.64,0.09,18.96,0.25c8.9,0.22,15.5,5.52,17.27,13.74c2.09,9.69-5.12,19.46-15.05,20.12
		c-4.29,0.29-8.62,0.05-13.41,0.05c0,6.7,0,13.09,0,19.84C5.86,58,3.43,58,1,58C1,40,1,22,1,4z"/>
	<path class="st0" d="M148.85,65.4c-6.75,0.97-8.15,0.23-10.66-5.44c-0.86-1.95-1.73-3.9-2.64-5.96c-9.27,0-18.38,0-27.86,0
		c-0.84,1.8-1.76,3.71-2.62,5.64c-2.69,6.03-3.44,6.49-10.8,5.95c7.85-17.85,15.64-35.53,23.5-53.42c2.53,0,4.94,0,7.64,0
		C133.21,29.89,141.01,47.61,148.85,65.4z"/>
	<path class="st0" d="M69.04,58.04c-2.62,0-4.42,0-6.55,0c-0.55-0.91-1.19-1.98-1.85-3.09c-5.13,2.99-10.26,5.13-16.22,3.18
		c-4.98-1.63-8.04-5.18-8.45-10.01c-0.46-5.5,1.86-10.05,7.06-11.95c3.52-1.28,7.42-1.57,11.19-2.06c2.09-0.27,4.25-0.05,6.39-0.05
		c0.33-7.07-4.15-10.38-11.2-8.17c-6.08,1.9-6.08,1.9-10.29-1.55c5.31-6.29,15.15-8.22,22.1-4.38c3.99,2.21,6.21,5.88,6.56,10.08
		C68.54,39.28,68.66,48.57,69.04,58.04z"/>
	<path class="st0" d="M76.3,72.75c2.48-5.71,4.78-11.03,7.26-16.74c-5.27-12.07-10.65-24.36-16.04-36.69
		c6.64-1.2,7.96-0.54,10.5,5.28c3.19,7.29,6.34,14.59,9.61,22.12c3.24-7.36,6.48-14.74,9.73-22.1c2.54-5.76,3.86-6.43,10.62-5.34
		c-7.3,16.6-14.61,33.13-21.84,49.7C84.24,73.33,80.71,73.21,76.3,72.75z"/>
	<path class="st1" d="M169.83,14.84c-2.33,5.37-6.49,4.14-10.07,4.05c-1.99,2.73-1.99,2.73-1.4,7.22c3.01,0,6.11,0,9.44,0
		c0,2.48,0,4.55,0,7.07c-3.15,0-6.23,0-9.77,0c0,10.98,0,21.53,0,32.39c-2.7,0-4.94,0-7.66,0c0-10.5,0-21.07,0-31.94
		c-2.34-0.22-4.25-0.4-6.39-0.6c0-1.85,0-3.57,0-5.64c2.04-0.59,3.89-1.13,6.04-1.75c-0.02-5.28,0.29-10.79,6.21-13.27
		C161.14,10.3,165.54,12.12,169.83,14.84z"/>
	<path class="st2" d="M177.94,65.74c-2.76,0-4.88,0-7.34,0c0-13.18,0-26.23,0-39.49c2.12,0,4.07,0,6.33,0c0.49,1.44,1,2.9,1.56,4.53
		c4.65-4.76,10.02-6.29,16.83-3.97c-0.61,2-1.16,3.81-1.8,5.91c-1.93,0.14-3.54,0.24-5.16,0.38c-7.1,0.62-10.41,4.19-10.41,11.22
		C177.93,51.3,177.94,58.27,177.94,65.74z"/>
	<path class="st3" d="M211.46,12.11c2.48,0,4.72,0,7.21,0c0,17.9,0,35.61,0,53.55c-2.47,0-4.71,0-7.21,0
		C211.46,47.74,211.46,30.04,211.46,12.11z"/>
	<path class="st4" d="M222.13,45.43c3.28-4.36,6.93-8.68,9.98-13.4c3.11-4.8,7.11-6.73,13.43-5.46c-4.7,6.39-9.24,12.56-13.88,18.87
		c4.94,6.63,9.86,13.23,14.97,20.08c-5.82,1.13-9.97-0.12-13.17-5C230.01,55.27,225.92,50.43,222.13,45.43z"/>
	<path class="st5" d="M196.42,26.4c2.31,0,4.55,0,7.08,0c0,13.02,0,25.9,0,39.14c-2.23,0-4.47,0-7.08,0
		C196.42,52.69,196.42,39.68,196.42,26.4z"/>
	<path class="st3" d="M199.69,11.09c2.66-0.14,5.22,2.16,5.36,4.82c0.14,2.74-2.06,5.11-4.87,5.23c-2.85,0.13-5.22-1.98-5.33-4.74
		C194.73,13.69,196.97,11.24,199.69,11.09z"/>
	<path class="st6" d="M8.83,11.91c4.26,0,8.22-0.16,12.16,0.04c5.08,0.25,8.81,4.06,9.05,8.89c0.25,5.01-3.32,9.39-8.59,9.85
		c-4.09,0.36-8.23,0.07-12.62,0.07C8.83,24.52,8.83,18.6,8.83,11.91z"/>
	<path class="st6" d="M132.09,45.96c-7.39,0-14.01,0-21,0c3.52-8,6.92-15.72,10.48-23.79C125.11,30.17,128.52,37.87,132.09,45.96z"
		/>
	<path class="st7" d="M61.07,40.98c0,2.77,0,4.71,0,6.91c-3.23,2.64-7.27,3.47-11.36,3.84c-3.51,0.32-6.11-1.51-6.54-4.04
		c-0.44-2.59,1.36-5.05,5.02-5.65C52.34,41.34,56.61,41.31,61.07,40.98z"/>
</g>
</svg>
