<?xml version="1.0" encoding="utf-8"?>
<svg width="16px" height="16px" viewBox="0 0 16 16" version="1.1" xmlns:xlink="http://www.w3.org/1999/xlink" xmlns="http://www.w3.org/2000/svg">
  <desc>Created with Lunacy</desc>
  <defs>
    <path d="M6.4495 0L1.04 0Q0.933174 0 0.830505 0.0193487Q0.727836 0.0386973 0.632668 0.0767647Q0.5375 0.114832 0.45293 0.170379Q0.36836 0.225925 0.297143 0.297143Q0.225925 0.36836 0.170379 0.45293Q0.114832 0.5375 0.0767647 0.632668Q0.0386973 0.727836 0.0193487 0.830505Q0 0.933174 0 1.04L0 8.64652L6.4495 8.64652L6.4495 0ZM14.16 0L8.7505 0L8.7505 5.2L15.2 5.2L15.2 1.04Q15.2 0.933174 15.1807 0.830505Q15.1613 0.727836 15.1232 0.632668Q15.0852 0.5375 15.0296 0.45293Q14.9741 0.36836 14.9029 0.297143Q14.8316 0.225925 14.7471 0.170379Q14.6625 0.114832 14.5673 0.0767647Q14.4722 0.0386973 14.3695 0.0193487Q14.2668 0 14.16 0ZM15.2 7.06367L8.7505 7.06367L8.7505 15.7102L14.16 15.7102Q14.2668 15.7102 14.3695 15.6908Q14.4722 15.6715 14.5673 15.6334Q14.6625 15.5954 14.7471 15.5398Q14.8316 15.4843 14.9029 15.4131Q14.9741 15.3418 15.0296 15.2573Q15.0852 15.1727 15.1232 15.0775Q15.1613 14.9824 15.1807 14.8797Q15.2 14.777 15.2 14.6702L15.2 7.06367ZM0 10.5102L6.4495 10.5102L6.4495 15.7102L1.04 15.7102Q0.933174 15.7102 0.830505 15.6908Q0.727836 15.6715 0.632668 15.6334Q0.5375 15.5954 0.45293 15.5398Q0.36836 15.4843 0.297143 15.4131Q0.225925 15.3418 0.170379 15.2573Q0.114832 15.1727 0.0767647 15.0775Q0.0386973 14.9824 0.0193487 14.8797Q0 14.777 0 14.6702L0 10.5102Z" id="path_1" />
    <clipPath id="mask_1">
      <use xlink:href="#path_1" />
    </clipPath>
  </defs>
  <path d="M6.4495 0L1.04 0Q0.933174 0 0.830505 0.0193487Q0.727836 0.0386973 0.632668 0.0767647Q0.5375 0.114832 0.45293 0.170379Q0.36836 0.225925 0.297143 0.297143Q0.225925 0.36836 0.170379 0.45293Q0.114832 0.5375 0.0767647 0.632668Q0.0386973 0.727836 0.0193487 0.830505Q0 0.933174 0 1.04L0 8.64652L6.4495 8.64652L6.4495 0ZM14.16 0L8.7505 0L8.7505 5.2L15.2 5.2L15.2 1.04Q15.2 0.933174 15.1807 0.830505Q15.1613 0.727836 15.1232 0.632668Q15.0852 0.5375 15.0296 0.45293Q14.9741 0.36836 14.9029 0.297143Q14.8316 0.225925 14.7471 0.170379Q14.6625 0.114832 14.5673 0.0767647Q14.4722 0.0386973 14.3695 0.0193487Q14.2668 0 14.16 0ZM15.2 7.06367L8.7505 7.06367L8.7505 15.7102L14.16 15.7102Q14.2668 15.7102 14.3695 15.6908Q14.4722 15.6715 14.5673 15.6334Q14.6625 15.5954 14.7471 15.5398Q14.8316 15.4843 14.9029 15.4131Q14.9741 15.3418 15.0296 15.2573Q15.0852 15.1727 15.1232 15.0775Q15.1613 14.9824 15.1807 14.8797Q15.2 14.777 15.2 14.6702L15.2 7.06367ZM0 10.5102L6.4495 10.5102L6.4495 15.7102L1.04 15.7102Q0.933174 15.7102 0.830505 15.6908Q0.727836 15.6715 0.632668 15.6334Q0.5375 15.5954 0.45293 15.5398Q0.36836 15.4843 0.297143 15.4131Q0.225925 15.3418 0.170379 15.2573Q0.114832 15.1727 0.0767647 15.0775Q0.0386973 14.9824 0.0193487 14.8797Q0 14.777 0 14.6702L0 10.5102Z" id="Main" fill="#FFFFFF" fill-rule="evenodd" stroke="none" />
</svg>