<?xml version="1.0" encoding="utf-8"?>
<svg width="20px" height="20px" viewBox="0 0 20 20" version="1.1" xmlns:xlink="http://www.w3.org/1999/xlink" xmlns="http://www.w3.org/2000/svg">
  <desc>Created with Lunacy</desc>
  <defs>
    <path d="M19 4L17 4L17 13L4 13L4 15C4 15.55 4.45 16 5 16L16 16L20 20L20 5C20 4.45 19.55 4 19 4L19 4ZM15 10L15 1C15 0.45 14.55 0 14 0L1 0C0.45 0 0 0.45 0 1L0 15L4 11L14 11C14.55 11 15 10.55 15 10L15 10Z" id="path_1" />
    <clipPath id="mask_1">
      <use xlink:href="#path_1" />
    </clipPath>
  </defs>
  <path d="M19 4L17 4L17 13L4 13L4 15C4 15.55 4.45 16 5 16L16 16L20 20L20 5C20 4.45 19.55 4 19 4L19 4ZM15 10L15 1C15 0.45 14.55 0 14 0L1 0C0.45 0 0 0.45 0 1L0 15L4 11L14 11C14.55 11 15 10.55 15 10L15 10Z" id="Message" fill="#FFFFFF" stroke="none" />
</svg>