<?xml version="1.0" encoding="utf-8"?>
<svg width="16px" height="16px" viewBox="0 0 16 16" version="1.1" xmlns:xlink="http://www.w3.org/1999/xlink" xmlns="http://www.w3.org/2000/svg">
  <desc>Created with Lunacy</desc>
  <path d="M11.0479 0L1.04 0Q0.933174 0 0.830505 0.0193487Q0.727836 0.0386973 0.632668 0.0767647Q0.5375 0.114832 0.45293 0.170379Q0.36836 0.225925 0.297143 0.297143Q0.225925 0.36836 0.170379 0.45293Q0.114832 0.5375 0.0767647 0.632668Q0.0386973 0.727836 0.0193487 0.830505Q0 0.933174 0 1.04L0 13.6Q0 13.682 0.007457 13.7627Q0.014914 13.8435 0.0297672 13.9223Q0.0446203 14.0011 0.0667485 14.0774Q0.0888767 14.1536 0.118099 14.2267Q0.147322 14.2997 0.183401 14.369Q0.21948 14.4383 0.262121 14.5032Q0.304762 14.5681 0.353617 14.6281Q0.402472 14.6882 0.457143 14.7429Q0.511814 14.7975 0.571854 14.8464Q0.631895 14.8952 0.696815 14.9379Q0.761736 14.9805 0.831007 15.0166Q0.900279 15.0527 0.973336 15.0819Q1.04639 15.1111 1.12264 15.1333Q1.19889 15.1554 1.2777 15.1702Q1.35651 15.1851 1.43725 15.1925Q1.51799 15.2 1.6 15.2L13.4137 15.2Q13.4957 15.2 13.5764 15.1925Q13.6572 15.1851 13.736 15.1702Q13.8148 15.1554 13.891 15.1333Q13.9673 15.1111 14.0403 15.0819Q14.1134 15.0527 14.1827 15.0166Q14.2519 14.9805 14.3169 14.9379Q14.3818 14.8952 14.4418 14.8464Q14.5019 14.7975 14.5565 14.7429Q14.6112 14.6882 14.6601 14.6281Q14.7089 14.5681 14.7516 14.5032Q14.7942 14.4383 14.8303 14.369Q14.8664 14.2997 14.8956 14.2267Q14.9248 14.1536 14.9469 14.0774Q14.9691 14.0011 14.9839 13.9223Q14.9988 13.8435 15.0062 13.7627Q15.0137 13.682 15.0137 13.6L15.0137 4.22848Q15.0137 4.12165 14.9943 4.01898Q14.975 3.91631 14.9369 3.82115Q14.8988 3.72598 14.8433 3.64141Q14.7877 3.55684 14.7165 3.48562Q14.6453 3.4144 14.5607 3.35886Q14.4762 3.30331 14.381 3.26524Q14.2858 3.22717 14.1832 3.20783Q14.0805 3.18848 13.9737 3.18848L12.0879 3.18848L12.0879 1.04Q12.0879 0.933174 12.0685 0.830505Q12.0492 0.727836 12.0111 0.632668Q11.9731 0.5375 11.9175 0.45293Q11.862 0.36836 11.7907 0.297143Q11.7195 0.225925 11.635 0.170379Q11.5504 0.114832 11.4552 0.0767647Q11.3601 0.0386973 11.2574 0.0193487Q11.1547 0 11.0479 0ZM2.37479 2.04295L9.75471 2.04295Q9.80812 2.04295 9.85946 2.05262Q9.91079 2.06229 9.95837 2.08133Q10.006 2.10036 10.0482 2.12813Q10.0905 2.15591 10.1261 2.19152Q10.1617 2.22713 10.1895 2.26941Q10.2173 2.3117 10.2363 2.35928Q10.2554 2.40686 10.265 2.4582Q10.2747 2.50953 10.2747 2.56295L10.2747 5.0799Q10.2747 5.13332 10.265 5.18465Q10.2554 5.23598 10.2363 5.28357Q10.2173 5.33115 10.1895 5.37344Q10.1617 5.41572 10.1261 5.45133Q10.0905 5.48694 10.0482 5.51471Q10.006 5.54249 9.95837 5.56152Q9.91079 5.58055 9.85946 5.59023Q9.80812 5.5999 9.75471 5.5999L2.37479 5.5999Q2.32137 5.5999 2.27004 5.59023Q2.2187 5.58055 2.17112 5.56152Q2.12354 5.54249 2.08125 5.51471Q2.03897 5.48694 2.00336 5.45133Q1.96775 5.41572 1.93997 5.37344Q1.9122 5.33115 1.89317 5.28357Q1.87413 5.23598 1.86446 5.18465Q1.85479 5.13332 1.85479 5.0799L1.85479 2.56295Q1.85479 2.50953 1.86446 2.4582Q1.87413 2.40686 1.89317 2.35928Q1.9122 2.3117 1.93997 2.26941Q1.96775 2.22713 2.00336 2.19152Q2.03897 2.15591 2.08125 2.12813Q2.12354 2.10036 2.17112 2.08133Q2.2187 2.06229 2.27004 2.05262Q2.32137 2.04295 2.37479 2.04295ZM13.2141 5.5999L11.4461 5.5999L11.4461 12.0484Q11.4461 12.143 11.4622 12.2342Q11.4783 12.3255 11.5101 12.4107Q11.5418 12.4959 11.5883 12.5727Q11.6348 12.6495 11.6947 12.7157Q11.7545 12.7818 11.8261 12.8354Q11.8976 12.889 11.9788 12.9285Q12.06 12.9679 12.1484 12.9922Q12.2369 13.0165 12.3301 13.0248Q12.2821 13.0291 12.2334 13.0291L12.4268 13.0291Q12.3781 13.0291 12.3301 13.0248Q12.4233 13.0165 12.5117 12.9922Q12.6002 12.9679 12.6814 12.9285Q12.7625 12.889 12.8341 12.8354Q12.9057 12.7818 12.9655 12.7157Q13.0254 12.6495 13.0719 12.5727Q13.1184 12.4959 13.1501 12.4107Q13.1819 12.3255 13.198 12.2342Q13.2141 12.143 13.2141 12.0484L13.2141 5.5999ZM9.75471 7.6L2.37479 7.6Q2.32137 7.6 2.27004 7.60967Q2.2187 7.61935 2.17112 7.63838Q2.12354 7.65742 2.08125 7.68519Q2.03897 7.71296 2.00336 7.74857Q1.96775 7.78418 1.93997 7.82647Q1.9122 7.86875 1.89317 7.91633Q1.87413 7.96392 1.86446 8.01525Q1.85479 8.06659 1.85479 8.12L1.85479 8.848Q1.85479 8.90141 1.86446 8.95275Q1.87413 9.00408 1.89317 9.05167Q1.9122 9.09925 1.93997 9.14153Q1.96775 9.18382 2.00336 9.21943Q2.03897 9.25504 2.08125 9.28281Q2.12354 9.31059 2.17112 9.32962Q2.2187 9.34865 2.27004 9.35833Q2.32137 9.368 2.37479 9.368L9.75471 9.368Q9.80812 9.368 9.85946 9.35833Q9.91079 9.34865 9.95837 9.32962Q10.006 9.31059 10.0482 9.28281Q10.0905 9.25504 10.1261 9.21943Q10.1617 9.18382 10.1895 9.14153Q10.2173 9.09925 10.2363 9.05167Q10.2554 9.00408 10.265 8.95275Q10.2747 8.90141 10.2747 8.848L10.2747 8.12Q10.2747 8.06659 10.265 8.01525Q10.2554 7.96392 10.2363 7.91633Q10.2173 7.86875 10.1895 7.82647Q10.1617 7.78418 10.1261 7.74857Q10.0905 7.71296 10.0482 7.68519Q10.006 7.65742 9.95837 7.63838Q9.91079 7.61935 9.85946 7.60967Q9.80812 7.6 9.75471 7.6ZM2.37479 10.8755L7.57961 10.8755Q7.63302 10.8755 7.68436 10.8852Q7.73569 10.8949 7.78328 10.9139Q7.83086 10.933 7.87315 10.9607Q7.91543 10.9885 7.95104 11.0241Q7.98665 11.0597 8.01442 11.102Q8.04219 11.1443 8.06123 11.1919Q8.08026 11.2395 8.08993 11.2908Q8.09961 11.3421 8.09961 11.3955L8.09961 12.1235Q8.09961 12.1769 8.08993 12.2283Q8.08026 12.2796 8.06123 12.3272Q8.04219 12.3748 8.01442 12.4171Q7.98665 12.4594 7.95104 12.495Q7.91543 12.5306 7.87315 12.5583Q7.83086 12.5861 7.78328 12.6051Q7.73569 12.6242 7.68436 12.6339Q7.63302 12.6435 7.57961 12.6435L2.37479 12.6435Q2.32137 12.6435 2.27004 12.6339Q2.2187 12.6242 2.17112 12.6051Q2.12354 12.5861 2.08125 12.5583Q2.03897 12.5306 2.00336 12.495Q1.96775 12.4594 1.93997 12.4171Q1.9122 12.3748 1.89317 12.3272Q1.87413 12.2796 1.86446 12.2283Q1.85479 12.1769 1.85479 12.1235L1.85479 11.3955Q1.85479 11.3421 1.86446 11.2908Q1.87413 11.2395 1.89317 11.1919Q1.9122 11.1443 1.93997 11.102Q1.96775 11.0597 2.00336 11.0241Q2.03897 10.9885 2.08125 10.9607Q2.12354 10.933 2.17112 10.9139Q2.2187 10.8949 2.27004 10.8852Q2.32137 10.8755 2.37479 10.8755Z" id="Tel" fill="#43444B" fill-rule="evenodd" stroke="none" />
</svg>