<?xml version="1.0" encoding="utf-8"?>
<svg width="16px" height="16px" viewBox="0 0 16 16" version="1.1" xmlns:xlink="http://www.w3.org/1999/xlink" xmlns="http://www.w3.org/2000/svg">
  <desc>Created with Lunacy</desc>
  <path d="M13.7611 0L1.04 0Q0.933174 0 0.830505 0.0193487Q0.727836 0.0386973 0.632668 0.0767647Q0.5375 0.114832 0.45293 0.170379Q0.36836 0.225925 0.297143 0.297143Q0.225925 0.36836 0.170379 0.45293Q0.114832 0.5375 0.0767647 0.632668Q0.0386973 0.727836 0.0193487 0.830505Q0 0.933174 0 1.04L0 14.56Q0 14.6668 0.0193487 14.7695Q0.0386973 14.8722 0.0767647 14.9673Q0.114832 15.0625 0.170379 15.1471Q0.225925 15.2316 0.297143 15.3029Q0.36836 15.3741 0.45293 15.4296Q0.5375 15.4852 0.632668 15.5232Q0.727836 15.5613 0.830505 15.5807Q0.933174 15.6 1.04 15.6L13.7611 15.6Q13.8679 15.6 13.9706 15.5807Q14.0732 15.5613 14.1684 15.5232Q14.2636 15.4852 14.3481 15.4296Q14.4327 15.3741 14.5039 15.3029Q14.5751 15.2316 14.6307 15.1471Q14.6862 15.0625 14.7243 14.9673Q14.7624 14.8722 14.7817 14.7695Q14.8011 14.6668 14.8011 14.56L14.8011 13L6.11587 13Q6.00905 13 5.90638 12.9807Q5.80371 12.9613 5.70854 12.9232Q5.61337 12.8852 5.5288 12.8296Q5.44423 12.7741 5.37302 12.7029Q5.3018 12.6316 5.24625 12.5471Q5.19071 12.4625 5.15264 12.3673Q5.11457 12.2722 5.09522 12.1695Q5.07587 12.0668 5.07587 11.96L5.07587 3.64Q5.07587 3.53317 5.09522 3.43051Q5.11457 3.32784 5.15264 3.23267Q5.19071 3.1375 5.24625 3.05293Q5.3018 2.96836 5.37302 2.89714Q5.44423 2.82593 5.5288 2.77038Q5.61337 2.71483 5.70854 2.67676Q5.80371 2.6387 5.90638 2.61935Q6.00905 2.6 6.11587 2.6L14.8011 2.6L14.8011 1.04Q14.8011 0.933174 14.7817 0.830505Q14.7624 0.727836 14.7243 0.632668Q14.6862 0.5375 14.6307 0.45293Q14.5751 0.36836 14.5039 0.297143Q14.4327 0.225925 14.3481 0.170379Q14.2636 0.114832 14.1684 0.0767647Q14.0732 0.0386973 13.9706 0.0193487Q13.8679 0 13.7611 0ZM8.07717 4.16L14.16 4.16Q14.2668 4.16 14.3695 4.17935Q14.4722 4.1987 14.5673 4.23676Q14.6625 4.27483 14.7471 4.33038Q14.8316 4.38593 14.9029 4.45714Q14.9741 4.52836 15.0296 4.61293Q15.0852 4.6975 15.1232 4.79267Q15.1613 4.88784 15.1807 4.99051Q15.2 5.09317 15.2 5.2L15.2 10.4Q15.2 10.5068 15.1807 10.6095Q15.1613 10.7122 15.1232 10.8073Q15.0852 10.9025 15.0296 10.9871Q14.9741 11.0716 14.9029 11.1429Q14.8316 11.2141 14.7471 11.2696Q14.6625 11.3252 14.5673 11.3632Q14.4722 11.4013 14.3695 11.4207Q14.2668 11.44 14.16 11.44L8.07717 11.44Q7.97034 11.44 7.86767 11.4207Q7.765 11.4013 7.66983 11.3632Q7.57467 11.3252 7.4901 11.2696Q7.40553 11.2141 7.33431 11.1429Q7.26309 11.0716 7.20754 10.9871Q7.152 10.9025 7.11393 10.8073Q7.07586 10.7122 7.05651 10.6095Q7.03717 10.5068 7.03717 10.4L7.03717 5.2Q7.03717 5.09317 7.05651 4.99051Q7.07586 4.88784 7.11393 4.79267Q7.152 4.6975 7.20754 4.61293Q7.26309 4.52836 7.33431 4.45714Q7.40553 4.38593 7.4901 4.33038Q7.57467 4.27483 7.66983 4.23676Q7.765 4.1987 7.86767 4.17935Q7.97034 4.16 8.07717 4.16ZM11.0711 6.46006L9.60438 6.46006Q9.55097 6.46006 9.49964 6.46973Q9.4483 6.47941 9.40072 6.49844Q9.35313 6.51747 9.31085 6.54525Q9.26856 6.57302 9.23295 6.60863Q9.19735 6.64424 9.16957 6.68652Q9.1418 6.72881 9.12277 6.77639Q9.10373 6.82398 9.09406 6.87531Q9.08438 6.92664 9.08438 6.98006L9.08438 8.62806Q9.08438 8.68147 9.09406 8.7328Q9.10373 8.78414 9.12277 8.83172Q9.1418 8.87931 9.16957 8.92159Q9.19735 8.96388 9.23295 8.99949Q9.26856 9.03509 9.31085 9.06287Q9.35313 9.09064 9.40072 9.10967Q9.4483 9.12871 9.49964 9.13838Q9.55097 9.14806 9.60438 9.14806L11.0711 9.14806Q11.1245 9.14806 11.1758 9.13838Q11.2271 9.12871 11.2747 9.10968Q11.3223 9.09064 11.3646 9.06287Q11.4069 9.0351 11.4425 8.99949Q11.4781 8.96388 11.5059 8.92159Q11.5336 8.87931 11.5527 8.83172Q11.5717 8.78414 11.5814 8.7328Q11.5911 8.68147 11.5911 8.62806L11.5911 6.98006Q11.5911 6.92664 11.5814 6.87531Q11.5717 6.82398 11.5527 6.77639Q11.5336 6.72881 11.5059 6.68652Q11.4781 6.64424 11.4425 6.60863Q11.4069 6.57302 11.3646 6.54525Q11.3223 6.51747 11.2747 6.49844Q11.2271 6.47941 11.1758 6.46973Q11.1245 6.46006 11.0711 6.46006Z" id="Cphone" fill="#43444B" fill-rule="evenodd" stroke="none" />
</svg>