<svg width="40" height="51" viewBox="0 0 40 51" fill="none" xmlns="http://www.w3.org/2000/svg">
<path d="M27.6738 17.4941C28.416 16.8887 29.1387 16.1367 29.8418 15.2383C30.5449 14.3398 31.1699 13.3926 31.7168 12.3965C32.2637 11.4004 32.7031 10.3848 33.0352 9.34961C33.3672 8.31445 33.5332 7.34766 33.5332 6.44922C33.5332 5.72656 33.3574 5.12109 33.0059 4.63281C32.6738 4.125 32.0586 3.87109 31.1602 3.87109C30.3984 3.87109 29.5586 4.04688 28.6406 4.39844C27.7227 4.75 26.7949 5.23828 25.8574 5.86328C24.9199 6.46875 24.002 7.20117 23.1035 8.06055C22.2246 8.90039 21.4434 9.81836 20.7598 10.8145C20.0762 11.8105 19.5195 12.8555 19.0898 13.9492C18.6797 15.043 18.4746 16.1465 18.4746 17.2598C18.4746 18.2168 18.5918 19.0469 18.8262 19.75C19.0605 20.4336 19.4023 21.0488 19.8516 21.5957C20.3008 22.123 20.8379 22.6113 21.4629 23.0605C22.1074 23.5098 22.8398 23.9785 23.6602 24.4668C21.1992 25.502 18.9336 26.7812 16.8633 28.3047C14.8125 29.8086 13.0449 31.4395 11.5605 33.1973C10.0762 34.9551 8.91406 36.7715 8.07422 38.6465C7.25391 40.502 6.84375 42.2891 6.84375 44.0078C6.84375 44.6133 6.99023 45.1504 7.2832 45.6191C7.57617 46.0684 8.03516 46.293 8.66016 46.293C9.48047 46.293 10.3984 46.0684 11.4141 45.6191C12.4297 45.1699 13.4844 44.584 14.5781 43.8613C15.6719 43.1387 16.7656 42.3281 17.8594 41.4297C18.9727 40.5312 20.0078 39.6328 20.9648 38.7344C21.9414 37.8164 22.8105 36.9473 23.5723 36.127C24.334 35.3066 24.9395 34.6133 25.3887 34.0469C26.5605 34.9844 27.5762 35.8242 28.4355 36.5664C29.2949 37.2891 30.0957 37.9531 30.8379 38.5586C30.5059 39.0078 29.9492 39.6328 29.168 40.4336C28.4062 41.2344 27.4883 42.0938 26.4141 43.0117C25.3594 43.9297 24.1973 44.8672 22.9277 45.8242C21.6777 46.7617 20.3984 47.6113 19.0898 48.373C17.8008 49.1348 16.5215 49.7598 15.252 50.248C13.9824 50.7363 12.8203 50.9805 11.7656 50.9805C10.8477 50.9805 9.92969 50.8242 9.01172 50.5117C8.11328 50.1992 7.25391 49.7793 6.43359 49.252C5.61328 48.7441 4.85156 48.1484 4.14844 47.4648C3.46484 46.8008 2.86914 46.1074 2.36133 45.3848C1.83398 44.6621 1.41406 43.9395 1.10156 43.2168C0.789062 42.4941 0.623047 41.8203 0.603516 41.1953V40.4922C0.603516 38.4414 0.964844 36.5078 1.6875 34.6914C2.41016 32.875 3.39648 31.2051 4.64648 29.6816C5.91602 28.1387 7.39062 26.752 9.07031 25.5215C10.7695 24.2715 12.5859 23.1875 14.5195 22.2695C14.168 21.918 13.8164 21.5371 13.4648 21.127C13.1328 20.7168 12.8301 20.2578 12.5566 19.75C12.3027 19.2227 12.0977 18.6367 11.9414 17.9922C11.7852 17.3477 11.707 16.625 11.707 15.8242C11.707 14.457 11.9512 13.1191 12.4395 11.8105C12.9277 10.502 13.582 9.27148 14.4023 8.11914C15.2227 6.9668 16.1797 5.91211 17.2734 4.95508C18.3867 3.99805 19.5586 3.17773 20.7891 2.49414C22.0195 1.79102 23.2793 1.24414 24.5684 0.853516C25.8574 0.462891 27.1074 0.267578 28.3184 0.267578C30.3301 0.267578 31.7363 0.472656 32.5371 0.882812C33.2012 1.23438 33.9141 1.74219 34.6758 2.40625C35.457 3.07031 36.1797 3.80273 36.8438 4.60352C37.5078 5.38477 38.0645 6.18555 38.5137 7.00586C38.9629 7.80664 39.1875 8.5293 39.1875 9.17383C39.1875 10.2871 39.002 11.4492 38.6309 12.6602C38.2598 13.8711 37.7715 15.0527 37.166 16.2051C36.5605 17.3379 35.8672 18.4121 35.0859 19.4277C34.3047 20.4238 33.5137 21.2637 32.7129 21.9473L27.6738 17.4941Z" fill="#F37AAD"/>
</svg>
