<svg width="161" height="59" viewBox="0 0 161 59" fill="none" xmlns="http://www.w3.org/2000/svg">
<g filter="url(#filter0_d)">
<path d="M33.6738 17.4941C34.416 16.8887 35.1387 16.1367 35.8418 15.2383C36.5449 14.3398 37.1699 13.3926 37.7168 12.3965C38.2637 11.4004 38.7031 10.3848 39.0352 9.34961C39.3672 8.31445 39.5332 7.34766 39.5332 6.44922C39.5332 5.72656 39.3574 5.12109 39.0059 4.63281C38.6738 4.125 38.0586 3.87109 37.1602 3.87109C36.3984 3.87109 35.5586 4.04688 34.6406 4.39844C33.7227 4.75 32.7949 5.23828 31.8574 5.86328C30.9199 6.46875 30.002 7.20117 29.1035 8.06055C28.2246 8.90039 27.4434 9.81836 26.7598 10.8145C26.0762 11.8105 25.5195 12.8555 25.0898 13.9492C24.6797 15.043 24.4746 16.1465 24.4746 17.2598C24.4746 18.2168 24.5918 19.0469 24.8262 19.75C25.0605 20.4336 25.4023 21.0488 25.8516 21.5957C26.3008 22.123 26.8379 22.6113 27.4629 23.0605C28.1074 23.5098 28.8398 23.9785 29.6602 24.4668C27.1992 25.502 24.9336 26.7812 22.8633 28.3047C20.8125 29.8086 19.0449 31.4395 17.5605 33.1973C16.0762 34.9551 14.9141 36.7715 14.0742 38.6465C13.2539 40.502 12.8438 42.2891 12.8438 44.0078C12.8438 44.6133 12.9902 45.1504 13.2832 45.6191C13.5762 46.0684 14.0352 46.293 14.6602 46.293C15.4805 46.293 16.3984 46.0684 17.4141 45.6191C18.4297 45.1699 19.4844 44.584 20.5781 43.8613C21.6719 43.1387 22.7656 42.3281 23.8594 41.4297C24.9727 40.5312 26.0078 39.6328 26.9648 38.7344C27.9414 37.8164 28.8105 36.9473 29.5723 36.127C30.334 35.3066 30.9395 34.6133 31.3887 34.0469C32.5605 34.9844 33.5762 35.8242 34.4355 36.5664C35.2949 37.2891 36.0957 37.9531 36.8379 38.5586C36.5059 39.0078 35.9492 39.6328 35.168 40.4336C34.4062 41.2344 33.4883 42.0938 32.4141 43.0117C31.3594 43.9297 30.1973 44.8672 28.9277 45.8242C27.6777 46.7617 26.3984 47.6113 25.0898 48.373C23.8008 49.1348 22.5215 49.7598 21.252 50.248C19.9824 50.7363 18.8203 50.9805 17.7656 50.9805C16.8477 50.9805 15.9297 50.8242 15.0117 50.5117C14.1133 50.1992 13.2539 49.7793 12.4336 49.252C11.6133 48.7441 10.8516 48.1484 10.1484 47.4648C9.46484 46.8008 8.86914 46.1074 8.36133 45.3848C7.83398 44.6621 7.41406 43.9395 7.10156 43.2168C6.78906 42.4941 6.62305 41.8203 6.60352 41.1953V40.4922C6.60352 38.4414 6.96484 36.5078 7.6875 34.6914C8.41016 32.875 9.39648 31.2051 10.6465 29.6816C11.916 28.1387 13.3906 26.752 15.0703 25.5215C16.7695 24.2715 18.5859 23.1875 20.5195 22.2695C20.168 21.918 19.8164 21.5371 19.4648 21.127C19.1328 20.7168 18.8301 20.2578 18.5566 19.75C18.3027 19.2227 18.0977 18.6367 17.9414 17.9922C17.7852 17.3477 17.707 16.625 17.707 15.8242C17.707 14.457 17.9512 13.1191 18.4395 11.8105C18.9277 10.502 19.582 9.27148 20.4023 8.11914C21.2227 6.9668 22.1797 5.91211 23.2734 4.95508C24.3867 3.99805 25.5586 3.17773 26.7891 2.49414C28.0195 1.79102 29.2793 1.24414 30.5684 0.853516C31.8574 0.462891 33.1074 0.267578 34.3184 0.267578C36.3301 0.267578 37.7363 0.472656 38.5371 0.882812C39.2012 1.23438 39.9141 1.74219 40.6758 2.40625C41.457 3.07031 42.1797 3.80273 42.8438 4.60352C43.5078 5.38477 44.0645 6.18555 44.5137 7.00586C44.9629 7.80664 45.1875 8.5293 45.1875 9.17383C45.1875 10.2871 45.002 11.4492 44.6309 12.6602C44.2598 13.8711 43.7715 15.0527 43.166 16.2051C42.5605 17.3379 41.8672 18.4121 41.0859 19.4277C40.3047 20.4238 39.5137 21.2637 38.7129 21.9473L33.6738 17.4941Z" fill="#F37AAD"/>
<path d="M44.0152 40.36C41.9752 40.36 40.5592 39.916 39.7672 39.028C38.9752 38.116 38.5792 36.748 38.5792 34.924V22.72C38.5792 22.456 38.6392 22.288 38.7592 22.216C38.8792 22.12 39.2752 22.06 39.9472 22.036C40.6432 22.012 41.5672 22 42.7192 22V35.176C42.7192 35.8 42.8032 36.256 42.9712 36.544C43.1392 36.808 43.4752 36.94 43.9792 36.94C44.5552 36.94 45.0112 36.784 45.3472 36.472V22.72C45.3472 22.456 45.3952 22.288 45.4912 22.216C45.6112 22.12 45.9952 22.06 46.6432 22.036C47.3152 22.012 48.2152 22 49.3432 22V38.992C48.6952 39.376 47.8912 39.7 46.9312 39.964C45.9952 40.228 45.0232 40.36 44.0152 40.36ZM51.6607 23.26C53.2927 22.18 54.9607 21.64 56.6647 21.64C57.6007 21.64 58.2367 21.784 58.5727 22.072C58.9087 22.336 59.0767 22.792 59.0767 23.44C59.0767 24.232 58.9447 25 58.6807 25.744C58.2967 25.552 57.8527 25.456 57.3487 25.456C57.1087 25.456 56.8447 25.504 56.5567 25.6C56.2687 25.696 56.0047 25.84 55.7647 26.032L55.7287 39.28C55.7287 39.544 55.6687 39.724 55.5487 39.82C55.4287 39.892 55.0327 39.94 54.3607 39.964C53.7127 39.988 52.8127 40 51.6607 40V23.26ZM65.9175 40.36C63.8775 40.36 62.4615 39.916 61.6695 39.028C60.8775 38.116 60.4815 36.748 60.4815 34.924V22.72C60.4815 22.456 60.5415 22.288 60.6615 22.216C60.7815 22.12 61.1775 22.06 61.8495 22.036C62.5455 22.012 63.4695 22 64.6215 22V35.176C64.6215 35.8 64.7055 36.256 64.8735 36.544C65.0415 36.808 65.3775 36.94 65.8815 36.94C66.4575 36.94 66.9135 36.784 67.2495 36.472V22.72C67.2495 22.456 67.2975 22.288 67.3935 22.216C67.5135 22.12 67.8975 22.06 68.5455 22.036C69.2175 22.012 70.1175 22 71.2455 22V38.992C70.5975 39.376 69.7935 39.7 68.8335 39.964C67.8975 40.228 66.9255 40.36 65.9175 40.36ZM77.307 40.36C74.475 40.36 73.059 39.652 73.059 38.236C73.059 37.54 73.275 36.796 73.707 36.004C74.691 36.532 75.747 36.796 76.875 36.796C77.499 36.796 77.967 36.664 78.279 36.4C78.591 36.112 78.747 35.728 78.747 35.248C78.747 34.528 78.471 33.856 77.919 33.232L74.787 29.92C74.187 29.296 73.743 28.648 73.455 27.976C73.167 27.304 73.023 26.68 73.023 26.104C73.023 24.736 73.491 23.656 74.427 22.864C75.363 22.048 76.875 21.64 78.963 21.64C80.739 21.64 81.915 21.868 82.491 22.324C83.091 22.756 83.391 23.284 83.391 23.908C83.391 24.22 83.319 24.556 83.175 24.916C83.055 25.252 82.875 25.552 82.635 25.816C81.699 25.312 80.655 25.06 79.503 25.06C78.351 25.06 77.775 25.432 77.775 26.176C77.775 26.416 77.847 26.668 77.991 26.932C78.135 27.196 78.423 27.544 78.855 27.976L81.519 30.676C82.215 31.492 82.683 32.224 82.923 32.872C83.187 33.496 83.319 34.264 83.319 35.176C83.319 36.784 82.779 38.056 81.699 38.992C80.619 39.904 79.155 40.36 77.307 40.36Z" fill="#F37AAD"/>
<path d="M107.739 14.8L103.419 40C102.747 40.072 102.159 40.12 101.655 40.144C101.151 40.192 100.575 40.216 99.9271 40.216C99.3271 40.216 98.8591 40.024 98.5231 39.64C98.1871 39.256 97.9471 38.692 97.8031 37.948L96.9751 33.952C96.6151 32.152 96.2191 29.068 95.7871 24.7C95.3311 29.116 94.9591 32.2 94.6711 33.952L93.6631 40C92.4871 40.12 91.2151 40.18 89.8471 40.18C89.3431 40.18 88.9231 39.976 88.5871 39.568C88.2751 39.16 88.0471 38.62 87.9031 37.948C87.3991 35.524 86.7151 31.672 85.8511 26.392C84.9871 21.112 84.4111 17.596 84.1231 15.844C84.0991 15.724 84.0871 15.568 84.0871 15.376C84.0871 15.16 84.1471 15.016 84.2671 14.944C84.4111 14.848 84.6631 14.8 85.0231 14.8H88.3711L90.1711 26.608C90.6751 29.848 91.0111 32.956 91.1791 35.932H91.4671C91.5391 33.004 91.8391 29.896 92.3671 26.608L93.9151 16.96C93.9631 16.552 94.0471 16.276 94.1671 16.132C94.2871 15.964 94.5271 15.88 94.8871 15.88H97.6951L99.5671 26.608C99.9751 28.96 100.323 32.068 100.611 35.932H100.899C101.019 32.86 101.307 29.752 101.763 26.608L103.311 15.88C103.359 15.472 103.443 15.196 103.563 15.052C103.683 14.884 103.911 14.8 104.247 14.8H107.739ZM112.66 40.36C111.628 40.36 110.74 40.228 109.996 39.964C109.276 39.7 108.688 39.16 108.232 38.344C107.776 37.504 107.548 36.304 107.548 34.744C107.548 32.488 107.932 30.94 108.7 30.1C109.468 29.236 110.476 28.804 111.724 28.804C112.084 28.804 112.48 28.852 112.912 28.948C113.368 29.02 113.74 29.152 114.028 29.344V26.86C114.028 26.38 113.908 26.032 113.668 25.816C113.452 25.6 113.068 25.492 112.516 25.492C111.844 25.492 111.1 25.564 110.284 25.708C109.468 25.852 108.76 26.032 108.16 26.248C107.8 25.552 107.62 24.784 107.62 23.944C107.62 23.704 107.668 23.464 107.764 23.224C107.86 22.984 107.98 22.804 108.124 22.684C108.436 22.444 109.084 22.216 110.068 22C111.052 21.76 112.192 21.64 113.488 21.64C115.144 21.64 116.308 21.976 116.98 22.648C117.676 23.296 118.024 24.424 118.024 26.032V27.724C118.024 33.604 117.964 37.432 117.844 39.208C116.548 39.976 114.82 40.36 112.66 40.36ZM112.948 37.084C113.404 37.084 113.74 36.964 113.956 36.724C114.004 36.172 114.028 34.612 114.028 32.044C113.788 31.828 113.464 31.72 113.056 31.72C112.624 31.72 112.3 31.936 112.084 32.368C111.868 32.776 111.76 33.532 111.76 34.636C111.76 35.524 111.844 36.16 112.012 36.544C112.18 36.904 112.492 37.084 112.948 37.084ZM120.215 15.304C120.215 14.704 120.323 14.296 120.539 14.08C120.755 13.84 121.103 13.696 121.583 13.648C122.087 13.576 122.963 13.54 124.211 13.54V39.28C124.211 39.544 124.151 39.724 124.031 39.82C123.911 39.892 123.527 39.94 122.879 39.964C122.231 39.988 121.343 40 120.215 40V15.304ZM126.614 15.304C126.614 14.704 126.722 14.296 126.938 14.08C127.154 13.84 127.502 13.696 127.982 13.648C128.486 13.576 129.362 13.54 130.61 13.54V39.28C130.61 39.544 130.55 39.724 130.43 39.82C130.31 39.892 129.926 39.94 129.278 39.964C128.63 39.988 127.742 40 126.614 40V15.304ZM139.096 36.472C140.248 36.472 141.52 36.136 142.912 35.464C143.128 36.184 143.236 37.072 143.236 38.128C143.236 38.824 142.744 39.376 141.76 39.784C140.8 40.168 139.588 40.36 138.124 40.36C136.324 40.36 134.944 39.748 133.984 38.524C133.024 37.276 132.544 35.056 132.544 31.864C132.544 29.128 132.82 27.004 133.372 25.492C133.948 23.98 134.692 22.96 135.604 22.432C136.516 21.904 137.608 21.64 138.88 21.64C141.952 21.64 143.488 23.596 143.488 27.508C143.488 29.596 143.32 31.3 142.984 32.62C141.616 32.908 139.528 33.076 136.72 33.124C136.792 34.348 136.996 35.212 137.332 35.716C137.668 36.22 138.256 36.472 139.096 36.472ZM138.376 25.096C137.824 25.096 137.416 25.492 137.152 26.284C136.912 27.076 136.768 28.312 136.72 29.992C138.064 29.992 138.964 29.884 139.42 29.668C139.54 29.308 139.6 28.684 139.6 27.796C139.6 26.692 139.516 25.972 139.348 25.636C139.18 25.276 138.856 25.096 138.376 25.096ZM150.462 40.36C149.43 40.36 148.65 40.168 148.122 39.784C147.594 39.4 147.234 38.848 147.042 38.128C146.85 37.408 146.754 36.46 146.754 35.284V25.384H144.558C144.558 24.28 144.57 23.512 144.594 23.08C144.618 22.648 144.678 22.36 144.774 22.216C144.894 22.072 145.098 22 145.386 22H146.754V16.78C146.754 16.348 146.862 16.048 147.078 15.88C147.294 15.712 147.642 15.616 148.122 15.592C148.626 15.544 149.502 15.52 150.75 15.52V22H153.702C153.702 23.128 153.69 23.908 153.666 24.34C153.642 24.748 153.57 25.024 153.45 25.168C153.354 25.312 153.174 25.384 152.91 25.384H150.75V35.212C150.75 35.788 150.798 36.232 150.894 36.544C150.99 36.832 151.23 36.976 151.614 36.976C152.214 36.976 152.838 36.82 153.486 36.508C153.654 37.3 153.738 37.936 153.738 38.416C153.738 39.712 152.646 40.36 150.462 40.36Z" fill="black"/>
</g>
<defs>
<filter id="filter0_d" x="-4" y="0.267578" width="169" height="59.7324" filterUnits="userSpaceOnUse" color-interpolation-filters="sRGB">
<feFlood flood-opacity="0" result="BackgroundImageFix"/>
<feColorMatrix in="SourceAlpha" type="matrix" values="0 0 0 0 0 0 0 0 0 0 0 0 0 0 0 0 0 0 127 0"/>
<feOffset dy="4"/>
<feGaussianBlur stdDeviation="2"/>
<feColorMatrix type="matrix" values="0 0 0 0 0 0 0 0 0 0 0 0 0 0 0 0 0 0 0.25 0"/>
<feBlend mode="normal" in2="BackgroundImageFix" result="effect1_dropShadow"/>
<feBlend mode="normal" in="SourceGraphic" in2="effect1_dropShadow" result="shape"/>
</filter>
</defs>
</svg>
